<?xml version="1.0" encoding="UTF-8"?>
<svg xmlns="http://www.w3.org/2000/svg" xmlns:xlink="http://www.w3.org/1999/xlink" width="110px" height="110px" viewBox="0 0 110 110" version="1.1">
<g id="surface1">
<path style=" stroke:none;fill-rule:nonzero;fill:rgb(25.490196%,14.509804%,10.980392%);fill-opacity:1;" d="M 17.839844 74.28125 C 17.839844 74.28125 26.636719 74.269531 28.617188 74.269531 C 29.664062 74.269531 31.550781 75.046875 30.796875 76.488281 C 30.199219 77.621094 28.503906 77.113281 27.515625 77.023438 C 25.859375 76.871094 25.160156 76.832031 23.503906 76.90625 C 22.628906 76.945312 19.0625 76.761719 18.726562 77.34375 C 18.410156 77.890625 18.75 78.925781 18.824219 79.511719 C 19.175781 82.277344 18.738281 86.757812 17.4375 90.496094 C 17.066406 91.574219 15.832031 92.78125 15.273438 92.84375 C 14.71875 92.90625 13.359375 92.78125 13.605469 91.296875 C 13.851562 89.8125 16.234375 85.472656 16.296875 83.679688 C 16.34375 82.265625 16.40625 80.835938 16.210938 79.429688 C 16.035156 78.160156 15.289062 76.910156 15.339844 75.625 C 15.398438 74.039062 16.648438 74.28125 17.839844 74.28125 Z M 17.839844 74.28125 "/>
<path style=" stroke:none;fill-rule:nonzero;fill:rgb(25.490196%,14.509804%,10.980392%);fill-opacity:1;" d="M 22.542969 81.367188 C 22.5625 81.257812 22.589844 81.148438 22.617188 81.042969 C 22.800781 80.378906 23.570312 79.457031 24.203125 80.207031 C 24.917969 81.058594 24.722656 82.441406 24.777344 83.472656 C 24.894531 85.863281 24.84375 88.261719 25.085938 90.640625 C 25.164062 91.441406 25.382812 92.550781 24.707031 93.167969 C 24.222656 93.613281 23.296875 93.660156 22.6875 93.511719 C 21.730469 93.277344 21.804688 92.523438 21.839844 91.6875 C 21.945312 89.210938 22.09375 86.738281 22.292969 84.261719 C 22.367188 83.324219 22.347656 82.300781 22.542969 81.367188 Z M 22.542969 81.367188 "/>
<path style=" stroke:none;fill-rule:nonzero;fill:rgb(25.490196%,14.509804%,10.980392%);fill-opacity:1;" d="M 27.828125 81.679688 C 27.972656 82.667969 28.351562 83.597656 28.644531 84.546875 C 29.148438 86.167969 29.335938 87.863281 29.8125 89.492188 C 30.210938 90.847656 31.171875 94.054688 33.214844 93.1875 C 33.839844 92.921875 33.699219 91.730469 33.214844 90.074219 C 32.320312 87.015625 31.527344 84.175781 29.839844 81.1875 C 29.628906 80.820312 29.035156 79.722656 28.261719 79.929688 C 27.566406 80.109375 27.757812 81.203125 27.828125 81.679688 Z M 27.828125 81.679688 "/>
<path style=" stroke:none;fill-rule:nonzero;fill:rgb(25.490196%,14.509804%,10.980392%);fill-opacity:1;" d="M 61.5 92.847656 C 59.886719 91.996094 58.320312 92.425781 56.585938 92.421875 C 55.894531 92.421875 55.78125 91.402344 55.8125 90.882812 C 55.894531 89.414062 57.527344 89.9375 58.542969 89.941406 C 59.050781 89.945312 59.589844 89.878906 59.832031 89.367188 C 60.21875 88.550781 59.625 87.910156 58.820312 87.871094 C 58.289062 87.847656 56.308594 88.132812 56.179688 87.945312 C 55.9375 87.585938 55.945312 86.71875 55.910156 86.328125 C 55.792969 85.117188 55.824219 84.996094 57.046875 84.917969 C 57.730469 84.875 58.015625 85 58.699219 84.996094 C 59.292969 84.992188 59.632812 85.175781 60.183594 84.917969 C 60.683594 84.6875 60.925781 83.761719 60.664062 83.289062 C 60.511719 83.011719 59.691406 82.949219 58.839844 82.984375 C 58.140625 83.011719 57.890625 82.960938 57.191406 82.992188 C 56.535156 83.019531 56.003906 83.152344 55.828125 82.371094 C 55.710938 81.863281 55.710938 80.859375 56.304688 80.621094 C 57.203125 80.261719 59.191406 81.011719 59.71875 79.921875 C 59.878906 79.589844 59.917969 79.136719 59.742188 78.808594 C 59.484375 78.332031 58.96875 78.394531 58.503906 78.394531 C 58.117188 78.394531 56.523438 78.523438 56.230469 78.390625 C 55.9375 78.253906 55.84375 77.390625 55.84375 76.878906 C 55.84375 76.328125 56.191406 74.742188 55.515625 74.460938 C 55.214844 74.332031 54.636719 74.382812 54.339844 74.511719 C 53.609375 74.828125 54.019531 76.324219 54.019531 76.941406 C 54.019531 77.140625 53.988281 77.742188 53.988281 77.855469 C 53.988281 78.691406 51.738281 77.984375 51.289062 78.507812 C 51.011719 78.832031 51.019531 79.554688 51.214844 79.921875 C 51.699219 80.824219 52.769531 80.320312 53.558594 80.488281 C 54.359375 80.652344 54.109375 82.972656 53.449219 83.046875 C 52.8125 83.121094 52.15625 83.011719 51.515625 83.015625 C 50.675781 83.023438 50.238281 83.695312 50.558594 84.507812 C 50.679688 84.828125 50.726562 84.984375 50.992188 85.0625 C 51.386719 85.171875 51.875 85.125 52.28125 85.132812 C 52.664062 85.140625 53.371094 85.011719 53.726562 85.160156 C 54.207031 85.367188 54.0625 87.0625 53.925781 87.699219 C 53.734375 88.617188 52.421875 87.714844 52.070312 87.429688 C 51.480469 86.960938 50.855469 86.402344 50.054688 86.726562 C 48.671875 87.292969 49.109375 88.960938 50.238281 89.476562 C 51.003906 89.828125 51.855469 89.664062 52.660156 89.789062 C 53.644531 89.9375 53.558594 91.558594 53.324219 92.234375 C 53.089844 92.90625 51.824219 92.664062 51.328125 92.574219 C 50.4375 92.410156 49.695312 92.132812 49.152344 91.367188 C 48.675781 90.691406 48.414062 89.367188 47.503906 89.175781 C 46.441406 88.957031 45.761719 89.71875 46.09375 90.8125 C 46.230469 91.277344 46.167969 91.476562 46.058594 91.507812 C 45.457031 91.6875 44.550781 92.011719 44.316406 91.703125 C 43.960938 91.242188 43.820312 90.160156 43.800781 89.625 C 43.769531 88.921875 43.539062 87.132812 44.097656 87.070312 C 45.351562 86.941406 47.296875 87.160156 48.371094 86.332031 C 49.070312 85.796875 49.449219 84.941406 49.476562 84.070312 C 49.511719 82.875 49.6875 81.757812 49.105469 80.652344 C 48.671875 79.832031 47.753906 79.636719 46.910156 79.632812 C 46.398438 79.632812 44.5625 79.816406 44.265625 79.324219 C 44.082031 79.015625 44.28125 76.265625 44.28125 75.816406 C 44.28125 75.367188 44.265625 74.933594 43.988281 74.746094 C 43.710938 74.5625 43.042969 74.363281 42.71875 74.890625 C 42.394531 75.410156 42.273438 76.015625 42.316406 76.414062 C 42.414062 77.296875 42.34375 78.21875 42.335938 79.105469 C 42.335938 79.1875 40.191406 79.113281 39.996094 79.121094 C 38.816406 79.152344 37.625 79.964844 37.472656 81.207031 C 37.324219 82.445312 37.015625 84.636719 37.199219 85.492188 C 37.382812 86.34375 38.875 86.878906 39.738281 87.011719 C 40.417969 87.121094 41.398438 87.027344 41.792969 87.222656 C 42.035156 87.347656 41.910156 87.984375 41.957031 88.613281 C 42.027344 89.5 42.148438 90.390625 42.105469 91.28125 C 42.0625 92.199219 41.144531 91.902344 40.445312 91.4375 C 39.957031 91.109375 39.6875 90.460938 38.996094 90.640625 C 38.699219 90.71875 38.25 90.980469 38.21875 91.457031 C 38.179688 92.152344 39.238281 93.144531 39.75 93.519531 C 40.574219 94.117188 41.605469 94.207031 42.59375 94.195312 C 44.089844 94.171875 45.421875 93.886719 46.722656 93.238281 C 46.972656 93.113281 47.621094 93.867188 48.070312 94.175781 C 48.519531 94.488281 49.644531 94.628906 50.605469 94.597656 C 52.628906 94.53125 54.660156 94.421875 56.6875 94.433594 C 57.6875 94.441406 58.652344 94.496094 59.640625 94.628906 C 60.261719 94.710938 61.050781 94.855469 61.605469 94.476562 C 62.097656 94.132812 62.054688 93.140625 61.5 92.847656 Z M 44.089844 83.46875 C 44.089844 83.09375 44.089844 82.71875 44.089844 82.347656 C 44.089844 82.132812 44.089844 81.917969 44.089844 81.707031 C 44.089844 81.035156 45.597656 81.21875 46.027344 81.347656 C 46.46875 81.484375 46.914062 81.671875 47.035156 82.171875 C 47.191406 82.835938 47.304688 83.535156 47.140625 84.210938 C 47.078125 84.472656 46.996094 84.765625 46.800781 84.960938 C 46.5 85.261719 45.953125 85.1875 45.570312 85.191406 C 45.265625 85.199219 44.9375 85.253906 44.652344 85.136719 C 44.441406 85.046875 44.089844 84.800781 44.089844 84.542969 C 44.089844 84.542969 44.089844 83.46875 44.089844 83.46875 Z M 42.019531 84.25 C 41.988281 84.5625 42.082031 84.8125 41.867188 84.890625 C 41.652344 84.964844 39.238281 84.953125 39.050781 84.144531 C 38.867188 83.339844 38.863281 82.859375 38.898438 82.507812 C 38.925781 82.15625 38.925781 81.464844 39.480469 81.3125 C 40.035156 81.160156 41.277344 81.152344 41.679688 81.257812 C 42.082031 81.359375 42.019531 81.554688 42.019531 81.554688 C 42.019531 81.554688 42.019531 81.59375 42.019531 81.660156 C 42.027344 82.121094 42.046875 83.976562 42.019531 84.25 Z M 42.019531 84.25 "/>
<path style=" stroke:none;fill-rule:nonzero;fill:rgb(69.411765%,77.647059%,40%);fill-opacity:1;" d="M 64.488281 94.230469 C 65.292969 94.671875 66.398438 94.644531 67.246094 94.359375 C 68.003906 94.105469 67.902344 92.894531 67.875 92.25 C 67.839844 91.460938 67.566406 90.671875 66.710938 90.492188 C 66.109375 90.363281 64.957031 90.324219 64.457031 90.757812 C 64.015625 91.144531 63.796875 91.960938 63.757812 92.523438 C 63.722656 93.011719 63.890625 93.566406 64.171875 93.964844 C 64.25 94.070312 64.359375 94.15625 64.488281 94.230469 Z M 64.488281 94.230469 "/>
<path style=" stroke:none;fill-rule:nonzero;fill:rgb(69.411765%,77.647059%,40%);fill-opacity:1;" d="M 76.421875 86.742188 C 76.449219 87.125 76.050781 87.523438 75.507812 87.660156 C 74.957031 87.796875 74.441406 87.769531 73.714844 87.769531 L 73.585938 87.769531 C 73.582031 88.683594 73.539062 90.386719 73.597656 90.886719 C 73.667969 91.519531 73.558594 91.851562 73.871094 91.886719 C 74.1875 91.929688 75.683594 91.886719 75.898438 92.472656 C 76.109375 93.058594 76.183594 93.363281 75.996094 94.089844 C 75.808594 94.8125 73.558594 94.746094 72.851562 94.640625 C 72.148438 94.527344 71.703125 94.089844 71.558594 93.527344 C 71.457031 93.117188 71.542969 89.648438 71.601562 87.753906 C 71.339844 87.753906 71.097656 87.761719 70.875 87.769531 C 70.167969 87.789062 69.207031 87.671875 68.804688 86.988281 C 68.4375 86.367188 68.988281 85.730469 69.546875 85.5 C 69.996094 85.3125 70.511719 85.324219 70.992188 85.296875 C 71.210938 85.28125 71.433594 85.277344 71.648438 85.277344 C 71.648438 84.574219 71.644531 83.835938 71.644531 83.835938 C 71.644531 83.835938 71.601562 82.644531 71.832031 82.21875 C 72.0625 81.796875 72.449219 81.632812 72.878906 81.726562 C 73.304688 81.824219 73.609375 81.933594 73.652344 82.589844 C 73.691406 83.246094 73.722656 83.945312 73.652344 84.21875 C 73.621094 84.335938 73.597656 84.792969 73.582031 85.332031 C 74.140625 85.347656 74.703125 85.367188 75.253906 85.417969 C 75.570312 85.445312 75.945312 85.480469 76.195312 85.6875 C 76.199219 85.691406 76.203125 85.691406 76.207031 85.695312 C 76.535156 85.96875 76.398438 86.386719 76.421875 86.742188 Z M 76.421875 86.742188 "/>
<path style=" stroke:none;fill-rule:nonzero;fill:rgb(69.411765%,77.647059%,40%);fill-opacity:1;" d="M 85.054688 92.773438 C 84.222656 92.394531 83.261719 92.582031 82.382812 92.640625 C 81.902344 92.671875 81.386719 92.667969 80.9375 92.46875 C 80.5625 92.304688 80.253906 91.964844 80.089844 91.605469 C 79.898438 91.1875 79.878906 90.742188 80.398438 90.628906 C 80.929688 90.511719 81.519531 90.609375 82.066406 90.59375 C 83.058594 90.566406 83.894531 90.5 84.539062 90.238281 C 85.351562 89.90625 85.710938 89.109375 85.59375 88.289062 C 85.464844 87.351562 85.4375 86.359375 84.6875 85.664062 C 83.71875 84.773438 81.480469 84.664062 80.089844 85.070312 C 79.082031 85.367188 78.109375 85.855469 77.734375 86.875 C 77.300781 88.050781 77.335938 89.363281 77.601562 90.574219 C 77.808594 91.496094 78.140625 92.429688 78.734375 93.183594 C 79.546875 94.21875 80.773438 94.699219 82.09375 94.691406 C 82.8125 94.6875 83.550781 94.765625 84.257812 94.589844 C 84.675781 94.484375 85.128906 94.242188 85.402344 93.914062 C 85.679688 93.589844 85.605469 93.136719 85.257812 92.886719 C 85.191406 92.839844 85.125 92.800781 85.054688 92.773438 Z M 79.925781 87.238281 C 80.125 86.964844 80.40625 86.742188 80.734375 86.617188 C 81.453125 86.335938 82.335938 86.515625 82.933594 86.984375 C 83.5 87.429688 84.039062 88.574219 83.199219 89.046875 C 82.632812 89.363281 81.882812 89.316406 81.253906 89.332031 C 80.722656 89.34375 80.058594 89.371094 79.773438 88.835938 C 79.5 88.324219 79.585938 87.699219 79.925781 87.238281 Z M 79.925781 87.238281 "/>
<path style=" stroke:none;fill-rule:nonzero;fill:rgb(69.411765%,77.647059%,40%);fill-opacity:1;" d="M 96.421875 93.289062 C 96.375 92.769531 95.492188 92.660156 95.09375 92.285156 C 94.421875 91.660156 95.09375 90.625 95.277344 89.917969 C 95.640625 88.523438 96.1875 86.234375 94.6875 85.171875 C 94.242188 84.855469 93.398438 84.628906 93.125 85.171875 C 92.683594 86.082031 90.597656 85.339844 89.8125 85.378906 C 89.03125 85.417969 88.632812 85.726562 88.121094 86.164062 C 87.460938 86.730469 87.269531 87.660156 87.105469 88.414062 C 86.6875 90.300781 86.582031 93.59375 89.34375 94.300781 C 90.371094 94.5625 91.878906 94.148438 92.550781 94.039062 C 93.21875 93.925781 93.394531 94.285156 93.707031 94.386719 C 94.019531 94.488281 95.039062 94.898438 95.621094 94.597656 C 96.195312 94.300781 96.464844 93.8125 96.421875 93.289062 Z M 92.933594 87.746094 C 93.132812 87.902344 93.265625 88.429688 93.261719 88.820312 C 93.242188 89.773438 93.128906 90.996094 92.59375 91.484375 C 92.144531 91.890625 91.304688 92.082031 90.609375 92.070312 C 89.890625 92.0625 89.65625 91.78125 89.367188 91.277344 C 89 90.628906 88.980469 89.777344 89.054688 89.039062 C 89.101562 88.570312 89.226562 88.074219 89.628906 87.714844 C 90.199219 87.203125 91.546875 87.003906 92.304688 87.324219 C 92.578125 87.433594 92.710938 87.570312 92.933594 87.746094 Z M 92.933594 87.746094 "/>
<path style=" stroke:none;fill-rule:nonzero;fill:rgb(100%,100%,100%);fill-opacity:1;" d="M 34.351562 46.242188 C 31.90625 47.074219 26.921875 49.308594 25.859375 52.140625 C 24.042969 56.988281 26.417969 60.523438 29.917969 63.109375 C 35.179688 67 42.871094 68.292969 48.765625 69 C 54.664062 69.710938 67.011719 68.613281 74.695312 65.234375 C 81.402344 62.285156 81.539062 59.15625 80.238281 55.796875 C 78.824219 52.140625 67.1875 46.738281 61.363281 45.722656 C 50.160156 43.765625 42.121094 43.597656 34.351562 46.242188 Z M 34.351562 46.242188 "/>
<path style=" stroke:none;fill-rule:nonzero;fill:rgb(39.607843%,32.54902%,31.372549%);fill-opacity:1;" d="M 52.710938 69.660156 C 51.167969 69.660156 49.808594 69.589844 48.710938 69.457031 C 42.605469 68.726562 34.921875 67.382812 29.644531 63.480469 C 25.210938 60.207031 23.796875 56.332031 25.429688 51.976562 C 26.761719 48.425781 33.449219 46.0625 34.207031 45.804688 C 41.605469 43.289062 49.242188 43.136719 61.445312 45.265625 C 67.4375 46.3125 79.199219 51.828125 80.667969 55.628906 C 81.953125 58.949219 82.144531 62.460938 74.882812 65.65625 C 68.449219 68.480469 59.0625 69.660156 52.710938 69.660156 Z M 34.503906 46.679688 C 31.90625 47.5625 27.253906 49.742188 26.292969 52.304688 C 24.804688 56.28125 26.078125 59.695312 30.191406 62.738281 C 35.296875 66.515625 42.828125 67.824219 48.824219 68.542969 C 54.34375 69.207031 66.671875 68.257812 74.511719 64.8125 C 81.390625 61.785156 80.855469 58.660156 79.8125 55.964844 C 78.464844 52.480469 66.953125 47.167969 61.289062 46.179688 C 49.25 44.074219 41.742188 44.214844 34.503906 46.679688 Z M 34.503906 46.679688 "/>
<path style=" stroke:none;fill-rule:nonzero;fill:rgb(83.529412%,83.529412%,83.529412%);fill-opacity:1;" d="M 55.035156 59.582031 C 62.554688 61.867188 67.363281 64.316406 68.738281 66.960938 C 68.738281 66.960938 78.546875 66.8125 80.183594 60.691406 C 80.886719 58.054688 81.011719 57.90625 79.996094 55.308594 C 78.980469 52.710938 73.601562 50.414062 73.601562 50.414062 L 69.113281 52.136719 C 69.109375 52.136719 63.90625 58.449219 55.035156 59.582031 Z M 55.035156 59.582031 "/>
<path style=" stroke:none;fill-rule:nonzero;fill:rgb(39.607843%,32.54902%,31.372549%);fill-opacity:1;" d="M 52.988281 69.980469 C 44.351562 69.980469 35.789062 68.027344 29.644531 63.480469 C 25.210938 60.203125 23.796875 56.332031 25.425781 51.976562 C 26.757812 48.425781 33.445312 46.0625 34.203125 45.804688 C 41.605469 43.289062 49.242188 43.136719 61.445312 45.265625 C 67.4375 46.3125 79.195312 51.828125 80.667969 55.628906 C 81.953125 58.949219 82.140625 62.460938 74.878906 65.65625 C 68.683594 68.378906 60.804688 69.980469 52.988281 69.980469 Z M 34.503906 46.679688 C 31.90625 47.5625 27.253906 49.742188 26.292969 52.304688 C 24.804688 56.28125 26.078125 59.695312 30.191406 62.738281 C 41.636719 71.203125 61.710938 70.4375 74.507812 64.808594 C 81.390625 61.785156 80.851562 58.660156 79.808594 55.964844 C 78.460938 52.480469 66.949219 47.164062 61.289062 46.175781 C 49.25 44.074219 41.742188 44.214844 34.503906 46.679688 Z M 34.503906 46.679688 "/>
<path style=" stroke:none;fill-rule:nonzero;fill:rgb(100%,100%,100%);fill-opacity:1;" d="M 76.238281 35.886719 C 76.238281 35.886719 77.78125 34.273438 79.347656 34.019531 C 80.914062 33.761719 82.605469 34.671875 83.570312 35.886719 C 84.53125 37.101562 85.257812 40.058594 84.292969 42.886719 C 83.230469 46.003906 80.453125 47.746094 77.707031 48.914062 C 76.363281 49.488281 74.957031 49.867188 73.601562 50.410156 C 72.878906 50.699219 72.238281 51.105469 71.542969 51.453125 C 71.148438 51.652344 69.257812 51.964844 69.113281 52.132812 C 70.304688 50.714844 71.699219 49.003906 72.402344 47.234375 C 73.027344 45.664062 75.03125 45.839844 77.066406 44.554688 C 79.109375 43.273438 80.070312 41.472656 79.710938 40.316406 C 79.347656 39.15625 76.953125 38.210938 74.894531 40.484375 Z M 76.238281 35.886719 "/>
<path style=" stroke:none;fill-rule:nonzero;fill:rgb(39.607843%,32.54902%,31.372549%);fill-opacity:1;" d="M 69.386719 52.535156 C 69.386719 52.53125 69.433594 52.507812 69.484375 52.449219 L 68.738281 51.824219 C 70 50.316406 71.292969 48.707031 71.945312 47.058594 C 72.40625 45.902344 73.46875 45.527344 74.59375 45.136719 C 75.277344 44.894531 76.050781 44.625 76.804688 44.148438 C 78.683594 42.964844 79.519531 41.34375 79.242188 40.464844 C 79.148438 40.164062 78.761719 39.78125 78.121094 39.640625 C 77.164062 39.429688 76.121094 39.855469 75.253906 40.8125 L 73.832031 42.390625 L 75.800781 35.636719 L 75.882812 35.550781 C 75.953125 35.480469 77.5625 33.820312 79.269531 33.539062 C 81.136719 33.234375 82.964844 34.347656 83.949219 35.585938 C 85.101562 37.035156 85.714844 40.222656 84.753906 43.046875 C 83.539062 46.605469 80.257812 48.355469 77.898438 49.363281 C 77.148438 49.679688 76.378906 49.941406 75.636719 50.195312 C 75.023438 50.402344 74.386719 50.621094 73.78125 50.863281 C 73.339844 51.042969 72.929688 51.265625 72.488281 51.503906 C 72.25 51.636719 72.007812 51.765625 71.757812 51.890625 C 71.539062 52.003906 71.113281 52.105469 70.4375 52.257812 C 70.070312 52.34375 69.507812 52.472656 69.386719 52.535156 Z M 77.632812 38.609375 C 77.867188 38.609375 78.101562 38.632812 78.332031 38.683594 C 79.234375 38.882812 79.957031 39.464844 80.175781 40.167969 C 80.640625 41.648438 79.46875 43.621094 77.328125 44.96875 C 76.480469 45.503906 75.652344 45.796875 74.921875 46.050781 C 73.792969 46.449219 73.140625 46.707031 72.855469 47.417969 C 72.324219 48.753906 71.433594 50.035156 70.46875 51.25 C 70.820312 51.167969 71.21875 51.074219 71.328125 51.019531 C 71.5625 50.902344 71.792969 50.773438 72.027344 50.648438 C 72.46875 50.410156 72.925781 50.15625 73.421875 49.960938 C 74.050781 49.707031 74.699219 49.488281 75.324219 49.273438 C 76.050781 49.023438 76.804688 48.769531 77.515625 48.464844 C 80.996094 46.984375 83 45.160156 83.832031 42.730469 C 84.765625 40 84 37.214844 83.1875 36.191406 C 82.40625 35.207031 80.894531 34.257812 79.429688 34.5 C 78.226562 34.699219 76.992188 35.828125 76.671875 36.144531 L 75.800781 39.121094 C 76.390625 38.785156 77.011719 38.609375 77.632812 38.609375 Z M 77.632812 38.609375 "/>
<path style=" stroke:none;fill-rule:nonzero;fill:rgb(83.529412%,83.529412%,83.529412%);fill-opacity:1;" d="M 84.070312 38.613281 C 84.6875 39.382812 85.261719 41.757812 84.695312 43.046875 C 84.128906 44.332031 80.46875 48.371094 79.613281 48.519531 C 78.753906 48.667969 75.878906 50.078125 74.953125 50.414062 C 74.027344 50.75 71.355469 51.484375 70.410156 51.753906 C 69.46875 52.019531 71.890625 47.058594 71.890625 47.058594 C 72.367188 46.496094 74.324219 45.890625 75.050781 45.785156 C 76.871094 45.511719 78.382812 43.585938 79.792969 42.398438 C 79.792969 42.398438 81 42.152344 81.871094 41.585938 C 83.691406 40.390625 84.070312 38.613281 84.070312 38.613281 Z M 84.070312 38.613281 "/>
<path style=" stroke:none;fill-rule:nonzero;fill:rgb(25.490196%,14.509804%,10.980392%);fill-opacity:1;" d="M 54.535156 62.058594 C 47.199219 62.058594 39.371094 59.753906 36.503906 54.230469 C 36.421875 54.078125 36.484375 53.894531 36.632812 53.8125 C 36.785156 53.734375 36.972656 53.792969 37.050781 53.945312 C 40.15625 59.929688 49.445312 61.964844 57.277344 61.328125 C 57.445312 61.320312 57.597656 61.441406 57.609375 61.609375 C 57.621094 61.78125 57.496094 61.929688 57.328125 61.941406 C 56.414062 62.019531 55.476562 62.058594 54.535156 62.058594 Z M 54.535156 62.058594 "/>
<path style=" stroke:none;fill-rule:nonzero;fill:rgb(25.490196%,14.509804%,10.980392%);fill-opacity:1;" d="M 60.019531 61.550781 C 59.890625 61.550781 59.769531 61.46875 59.726562 61.335938 C 59.675781 61.171875 59.765625 61 59.929688 60.949219 C 59.96875 60.9375 64.222656 59.558594 66.917969 56.628906 C 67.035156 56.503906 67.230469 56.496094 67.355469 56.613281 C 67.480469 56.726562 67.488281 56.921875 67.371094 57.046875 C 64.5625 60.097656 60.296875 61.480469 60.113281 61.535156 C 60.082031 61.546875 60.050781 61.550781 60.019531 61.550781 Z M 60.019531 61.550781 "/>
<path style=" stroke:none;fill-rule:nonzero;fill:rgb(39.607843%,32.54902%,31.372549%);fill-opacity:1;" d="M 69.386719 52.535156 C 69.386719 52.53125 69.433594 52.507812 69.484375 52.449219 L 68.738281 51.824219 C 70 50.316406 71.292969 48.707031 71.945312 47.058594 C 72.40625 45.902344 73.46875 45.527344 74.59375 45.136719 C 75.277344 44.894531 76.050781 44.625 76.804688 44.148438 C 78.683594 42.964844 79.519531 41.34375 79.242188 40.464844 C 79.148438 40.164062 78.761719 39.78125 78.121094 39.640625 C 77.164062 39.429688 76.121094 39.855469 75.253906 40.8125 L 73.832031 42.390625 L 75.800781 35.636719 L 75.882812 35.550781 C 75.953125 35.480469 77.5625 33.820312 79.269531 33.539062 C 81.136719 33.234375 82.964844 34.347656 83.949219 35.585938 C 85.101562 37.035156 85.714844 40.222656 84.753906 43.046875 C 83.539062 46.605469 80.257812 48.355469 77.898438 49.363281 C 77.148438 49.679688 76.378906 49.941406 75.636719 50.195312 C 75.023438 50.402344 74.386719 50.621094 73.78125 50.863281 C 73.339844 51.042969 72.929688 51.265625 72.488281 51.503906 C 72.25 51.636719 72.007812 51.765625 71.757812 51.890625 C 71.539062 52.003906 71.113281 52.105469 70.4375 52.257812 C 70.070312 52.34375 69.507812 52.472656 69.386719 52.535156 Z M 77.632812 38.609375 C 77.867188 38.609375 78.101562 38.632812 78.332031 38.683594 C 79.234375 38.882812 79.957031 39.464844 80.175781 40.167969 C 80.640625 41.648438 79.46875 43.621094 77.328125 44.96875 C 76.480469 45.503906 75.652344 45.796875 74.921875 46.050781 C 73.792969 46.449219 73.140625 46.707031 72.855469 47.417969 C 72.324219 48.753906 71.433594 50.035156 70.46875 51.25 C 70.820312 51.167969 71.21875 51.074219 71.328125 51.019531 C 71.5625 50.902344 71.792969 50.773438 72.027344 50.648438 C 72.46875 50.410156 72.925781 50.15625 73.421875 49.960938 C 74.050781 49.707031 74.699219 49.488281 75.324219 49.273438 C 76.050781 49.023438 76.804688 48.769531 77.515625 48.464844 C 80.996094 46.984375 83 45.160156 83.832031 42.730469 C 84.765625 40 84 37.214844 83.1875 36.191406 C 82.40625 35.207031 80.894531 34.257812 79.429688 34.5 C 78.226562 34.699219 76.992188 35.828125 76.671875 36.144531 L 75.800781 39.121094 C 76.390625 38.785156 77.011719 38.609375 77.632812 38.609375 Z M 77.632812 38.609375 "/>
<path style=" stroke:none;fill-rule:nonzero;fill:rgb(52.941176%,35.294118%,30.588235%);fill-opacity:1;" d="M 76.824219 34.824219 C 76.796875 34.910156 76.769531 34.992188 76.738281 35.074219 C 76.871094 34.316406 76.75 34.449219 76.742188 33.855469 C 76.675781 29.820312 40.113281 7.339844 28.972656 36.5625 C 28.914062 36.40625 28.863281 36.253906 28.8125 36.097656 C 26.894531 29.960938 31.316406 23.214844 35.746094 19.371094 C 45.480469 10.929688 61.574219 11.492188 71.207031 19.792969 C 75.570312 23.558594 78.710938 28.980469 76.824219 34.824219 Z M 76.824219 34.824219 "/>
<path style=" stroke:none;fill-rule:nonzero;fill:rgb(39.607843%,32.156863%,30.588235%);fill-opacity:1;" d="M 28.96875 37.429688 L 28.679688 36.671875 C 28.621094 36.511719 28.566406 36.351562 28.515625 36.191406 C 26.527344 29.828125 31.058594 23.027344 35.546875 19.136719 C 40.265625 15.046875 46.648438 12.863281 53.519531 12.996094 C 60.195312 13.121094 66.710938 15.515625 71.40625 19.558594 C 76.710938 24.132812 78.789062 29.734375 77.117188 34.921875 C 77.089844 35.007812 77.058594 35.09375 77.027344 35.183594 L 76.433594 35.023438 C 76.507812 34.589844 76.496094 34.496094 76.472656 34.339844 C 76.457031 34.230469 76.433594 34.097656 76.433594 33.859375 C 76.402344 32.082031 66.40625 24.640625 54.839844 22.605469 C 46.195312 21.085938 34.742188 22.289062 29.257812 36.671875 Z M 52.992188 13.652344 C 46.726562 13.652344 40.53125 15.628906 35.949219 19.601562 C 31.355469 23.585938 27.488281 30.039062 29 35.648438 C 34.75 21.636719 46.238281 20.46875 54.945312 22 C 65.523438 23.859375 75.542969 30.378906 76.894531 33.277344 C 77.703125 28.757812 75.613281 24.003906 71.003906 20.027344 C 66.078125 15.78125 59.5 13.652344 52.992188 13.652344 Z M 52.992188 13.652344 "/>
<path style=" stroke:none;fill-rule:nonzero;fill:rgb(25.490196%,14.509804%,10.980392%);fill-opacity:1;" d="M 76.738281 33.777344 C 76.746094 34.371094 76.871094 34.316406 76.738281 35.078125 C 75.21875 39.503906 71.382812 43.398438 67.144531 45.300781 C 61.363281 47.894531 54.507812 49.164062 48.859375 48.25 C 41.003906 46.980469 31.566406 43.785156 28.96875 36.5625 C 40.113281 7.339844 76.671875 29.742188 76.738281 33.777344 Z M 76.738281 33.777344 "/>
<path style=" stroke:none;fill-rule:nonzero;fill:rgb(39.607843%,32.156863%,30.588235%);fill-opacity:1;" d="M 52.695312 48.847656 C 51.347656 48.847656 50.042969 48.753906 48.8125 48.554688 C 42.523438 47.535156 31.550781 44.636719 28.679688 36.667969 L 28.640625 36.5625 L 28.679688 36.453125 C 34.324219 21.652344 46.113281 20.410156 55.007812 21.976562 C 66.324219 23.96875 77.003906 31.289062 77.042969 33.773438 C 77.042969 33.964844 77.058594 34.082031 77.074219 34.191406 C 77.101562 34.40625 77.128906 34.59375 77.039062 35.128906 L 77.027344 35.175781 C 75.542969 39.5 71.714844 43.585938 67.269531 45.578125 C 62.542969 47.703125 57.339844 48.847656 52.695312 48.847656 Z M 29.300781 36.566406 C 32.121094 44.160156 42.785156 46.953125 48.910156 47.945312 C 54.25 48.808594 61.019531 47.710938 67.019531 45.015625 C 71.308594 43.089844 75.003906 39.164062 76.4375 34.996094 C 76.511719 34.574219 76.492188 34.453125 76.46875 34.273438 C 76.453125 34.15625 76.433594 34.011719 76.429688 33.78125 C 76.402344 32.015625 66.4375 24.613281 54.902344 22.582031 C 46.257812 21.0625 34.8125 22.257812 29.300781 36.566406 Z M 29.300781 36.566406 "/>
<path style=" stroke:none;fill-rule:nonzero;fill:rgb(84.313725%,70.980392%,67.45098%);fill-opacity:1;" d="M 34.511719 43.484375 C 35.550781 44.046875 35.417969 41.136719 37.851562 38.34375 C 42.550781 32.949219 51.695312 30.582031 58.300781 33.90625 C 62.378906 35.957031 67.988281 37.863281 68.9375 42.890625 C 69.851562 47.722656 63.691406 49.660156 54.875 49.882812 C 46.066406 50.105469 34.507812 43.484375 34.511719 43.484375 Z M 34.511719 43.484375 "/>
<path style=" stroke:none;fill-rule:nonzero;fill:rgb(100%,100%,100%);fill-opacity:1;" d="M 54.429688 50.351562 C 50.796875 50.351562 46.355469 49.289062 41.21875 47.195312 C 39.140625 46.347656 37.371094 45.496094 36.246094 44.929688 C 35.164062 44.382812 34.640625 44.101562 34.375 43.933594 C 34.347656 43.921875 34.320312 43.90625 34.292969 43.890625 L 34.296875 43.882812 C 34.125 43.769531 34.105469 43.71875 34.082031 43.660156 L 33.605469 42.472656 L 34.730469 43.082031 C 34.859375 42.933594 35.054688 42.441406 35.214844 42.039062 C 35.617188 41.035156 36.222656 39.515625 37.503906 38.042969 C 42.550781 32.246094 51.976562 30.207031 58.511719 33.496094 C 59.078125 33.78125 59.671875 34.0625 60.296875 34.355469 C 64.15625 36.1875 68.535156 38.253906 69.394531 42.808594 C 69.664062 44.246094 69.371094 45.507812 68.515625 46.566406 C 66.636719 48.894531 62.054688 50.164062 54.890625 50.347656 C 54.738281 50.347656 54.585938 50.351562 54.429688 50.351562 Z M 35.546875 43.523438 C 38.296875 44.988281 47.589844 49.601562 54.867188 49.421875 C 61.648438 49.25 66.121094 48.0625 67.796875 45.984375 C 68.480469 45.136719 68.707031 44.152344 68.484375 42.976562 C 67.714844 38.886719 63.5625 36.921875 59.898438 35.1875 C 59.269531 34.890625 58.675781 34.609375 58.09375 34.316406 C 51.910156 31.207031 42.988281 33.148438 38.199219 38.644531 C 37.023438 40 36.472656 41.375 36.074219 42.375 C 35.882812 42.859375 35.730469 43.246094 35.546875 43.523438 Z M 35.546875 43.523438 "/>
<path style=" stroke:none;fill-rule:nonzero;fill:rgb(90.980392%,91.372549%,91.372549%);fill-opacity:1;" d="M 76.738281 35.074219 C 75.5 42.398438 72.691406 49.324219 66.988281 54.257812 C 62.621094 58.03125 58.390625 59.800781 52.570312 59.6875 C 40.042969 59.441406 33.109375 47.140625 28.804688 37.003906 C 28.859375 36.855469 28.914062 36.710938 28.972656 36.5625 C 31.570312 43.785156 41.007812 46.976562 48.863281 48.25 C 54.511719 49.160156 61.367188 47.894531 67.148438 45.300781 C 71.382812 43.398438 75.21875 39.503906 76.738281 35.074219 Z M 76.738281 35.074219 "/>
<path style=" stroke:none;fill-rule:nonzero;fill:rgb(39.607843%,32.156863%,30.588235%);fill-opacity:1;" d="M 76.449219 34.976562 C 75.015625 39.148438 71.316406 43.089844 67.019531 45.015625 C 61.019531 47.710938 54.25 48.804688 48.90625 47.945312 C 42.757812 46.949219 32.019531 44.128906 29.261719 36.457031 L 28.988281 35.699219 L 28.683594 36.449219 C 28.667969 36.480469 28.65625 36.511719 28.644531 36.546875 C 28.640625 36.554688 28.640625 36.5625 28.636719 36.574219 C 28.832031 37.214844 29.03125 37.859375 29.230469 38.496094 C 29.554688 39.554688 30.035156 40.542969 30.515625 41.53125 C 30.941406 42.402344 31.378906 43.261719 31.839844 44.117188 C 32.308594 44.984375 32.800781 45.839844 33.316406 46.683594 C 33.832031 47.53125 34.378906 48.363281 34.949219 49.179688 C 35.519531 49.992188 36.121094 50.78125 36.753906 51.546875 C 37.382812 52.304688 38.042969 53.035156 38.738281 53.726562 C 39.429688 54.414062 40.15625 55.066406 40.917969 55.671875 C 41.675781 56.273438 42.46875 56.828125 43.300781 57.324219 C 44.132812 57.824219 45 58.261719 45.894531 58.628906 C 46.8125 59 47.753906 59.304688 48.71875 59.527344 C 49.71875 59.761719 50.746094 59.90625 51.773438 59.96875 C 52.035156 59.984375 52.296875 59.992188 52.558594 60 C 52.742188 60.003906 52.914062 60.003906 53.09375 60.003906 C 58.496094 60.003906 62.738281 58.335938 67.1875 54.492188 C 72.296875 50.070312 75.613281 43.554688 77.039062 35.128906 Z M 52.578125 59.378906 C 41.222656 59.152344 34.542969 48.804688 30.371094 39.78125 C 34.59375 45.421875 43.425781 47.679688 48.816406 48.550781 C 54.265625 49.429688 61.171875 48.320312 67.273438 45.574219 C 70.855469 43.972656 74.039062 41.003906 75.914062 37.652344 C 74.308594 44.667969 71.246094 50.167969 66.785156 54.019531 C 62.320312 57.882812 58.070312 59.492188 52.578125 59.378906 Z M 52.578125 59.378906 "/>
<path style=" stroke:none;fill-rule:nonzero;fill:rgb(69.411765%,77.647059%,40%);fill-opacity:1;" d="M 54.277344 30.3125 C 54.277344 30.3125 52.167969 31.511719 51.820312 32.359375 C 51.476562 33.207031 50.535156 35.339844 50.582031 35.636719 C 50.628906 35.933594 49.371094 36.074219 49.167969 36.09375 C 48.964844 36.121094 48.714844 36.660156 48.773438 36.644531 C 48.832031 36.625 49.933594 36.78125 49.933594 36.78125 L 49.816406 37.550781 C 49.816406 37.550781 49.914062 37.984375 49.972656 38.003906 C 50.03125 38.019531 50.621094 37.214844 50.621094 37.214844 C 50.621094 37.214844 50.855469 37.199219 50.929688 37.28125 C 51.003906 37.363281 53.03125 39.847656 53.132812 39.9375 C 53.234375 40.027344 55.3125 40.960938 56.261719 41.105469 C 57.210938 41.253906 58.050781 41.753906 58.265625 42.007812 C 58.480469 42.265625 58.875 42.316406 58.796875 42.492188 C 58.722656 42.664062 58.5 43.464844 58.480469 43.660156 C 58.460938 43.855469 58.769531 43.90625 58.996094 43.660156 C 59.21875 43.417969 59.640625 43.808594 59.523438 43.996094 C 59.40625 44.183594 59.84375 43.824219 59.917969 43.734375 C 59.992188 43.648438 60.503906 43.480469 60.667969 43.507812 C 60.835938 43.535156 62.621094 43.742188 62.976562 43.660156 C 63.328125 43.578125 64.988281 43.0625 65.964844 41.121094 C 66.9375 39.179688 67.332031 37.605469 67.398438 37.308594 C 67.46875 37.015625 67.542969 35.816406 67.25 35.363281 C 66.960938 34.914062 55.617188 29.664062 54.277344 30.3125 Z M 54.277344 30.3125 "/>
<path style=" stroke:none;fill-rule:nonzero;fill:rgb(69.411765%,77.647059%,40%);fill-opacity:1;" d="M 62.75 22.777344 C 62.75 22.777344 62.804688 21.832031 62.296875 21.152344 C 61.792969 20.476562 61.445312 19.878906 60.632812 19.945312 C 59.820312 20.007812 58.785156 20.511719 58.386719 21.121094 C 57.984375 21.730469 57.542969 22.273438 56.777344 22.617188 C 56.003906 22.960938 55.167969 23.484375 54.832031 23.746094 C 54.5 24.011719 53.308594 25.355469 53.222656 25.605469 C 53.140625 25.851562 53.09375 27.210938 53.199219 27.511719 C 53.300781 27.8125 54.464844 31.210938 54.585938 31.476562 C 54.707031 31.738281 55.429688 32.921875 56.101562 33.300781 C 56.769531 33.683594 59.933594 34.800781 60.503906 34.832031 C 61.066406 34.867188 64.320312 35.769531 64.699219 35.636719 C 65.078125 35.5 68.695312 35.792969 69.242188 35.648438 C 69.785156 35.503906 70.46875 35.535156 70.75 34.625 C 71.027344 33.710938 71.304688 32.984375 71.636719 32.0625 C 71.972656 31.136719 72.421875 30.324219 72.683594 29.269531 C 72.945312 28.214844 72.835938 26.914062 72.425781 26.351562 C 72.011719 25.789062 71.503906 25.398438 70.65625 25.464844 C 69.8125 25.53125 68.964844 25.316406 68.710938 25.464844 C 68.457031 25.613281 67.726562 25.730469 67.726562 25.730469 C 67.726562 25.730469 66.667969 23.863281 65.917969 23.746094 C 65.167969 23.632812 62.75 22.777344 62.75 22.777344 Z M 62.75 22.777344 "/>
<path style=" stroke:none;fill-rule:nonzero;fill:rgb(100%,100%,100%);fill-opacity:1;" d="M 53.863281 28.722656 C 53.84375 28.628906 55.242188 28.226562 55.359375 28.191406 C 56.179688 27.929688 57.011719 27.671875 57.886719 27.695312 C 59.296875 27.730469 60.636719 28.363281 61.835938 29.054688 C 63.566406 30.046875 65.074219 31.351562 66.355469 32.871094 C 66.855469 33.464844 67.5625 34.339844 67.464844 35.167969 C 67.40625 35.621094 64.105469 35.167969 63.691406 35.167969 C 63.277344 35.167969 59.871094 34.828125 58.578125 34.320312 C 57.285156 33.8125 55.828125 33.328125 55.082031 31.988281 C 54.335938 30.648438 53.863281 28.722656 53.863281 28.722656 Z M 53.863281 28.722656 "/>
<path style=" stroke:none;fill-rule:nonzero;fill:rgb(100%,100%,100%);fill-opacity:1;" d="M 52.292969 38.617188 C 52.292969 38.617188 52.191406 36.742188 53.394531 35.523438 C 53.683594 35.230469 55.859375 33.6875 56.976562 33.78125 C 58.089844 33.875 61 34.640625 61.453125 34.949219 C 61.902344 35.257812 62.820312 35.738281 62.789062 36.324219 C 62.757812 36.910156 61.105469 39.386719 60.648438 40.09375 C 60.191406 40.804688 59.113281 42.277344 58.519531 41.96875 C 57.921875 41.65625 55.402344 40.773438 54.917969 40.640625 C 54.433594 40.507812 52.558594 39.5625 52.292969 38.617188 Z M 52.292969 38.617188 "/>
<path style=" stroke:none;fill-rule:nonzero;fill:rgb(100%,100%,100%);fill-opacity:1;" d="M 58.597656 23.050781 C 58.589844 23.007812 58.582031 22.964844 58.578125 22.921875 C 58.542969 21.816406 59.875 21.070312 60.800781 21.742188 C 61.230469 22.058594 61.449219 23.085938 61.175781 23.535156 C 60.878906 24.023438 60.046875 24.074219 59.570312 23.890625 C 59.199219 23.75 58.695312 23.472656 58.597656 23.050781 Z M 58.597656 23.050781 "/>
<path style=" stroke:none;fill-rule:nonzero;fill:rgb(100%,100%,100%);fill-opacity:1;" d="M 67.449219 27.539062 C 67.746094 26.226562 69.703125 26.304688 70.640625 26.742188 C 71.503906 27.144531 71.671875 28.046875 71.363281 28.890625 C 70.949219 30 69.9375 30.046875 68.953125 29.699219 C 67.992188 29.363281 67.199219 28.636719 67.449219 27.539062 Z M 67.449219 27.539062 "/>
<path style=" stroke:none;fill-rule:nonzero;fill:rgb(31.764706%,37.254902%,24.313725%);fill-opacity:1;" d="M 60.589844 23.125 C 59.820312 23.125 59.09375 22.800781 59.058594 22.789062 C 58.964844 22.746094 58.925781 22.636719 58.964844 22.542969 C 59.007812 22.449219 59.117188 22.410156 59.210938 22.449219 C 59.21875 22.457031 60 22.796875 60.730469 22.753906 C 60.828125 22.742188 60.921875 22.824219 60.925781 22.925781 C 60.933594 23.023438 60.855469 23.113281 60.753906 23.121094 C 60.699219 23.121094 60.644531 23.125 60.589844 23.125 Z M 60.589844 23.125 "/>
<path style=" stroke:none;fill-rule:nonzero;fill:rgb(31.764706%,37.254902%,24.313725%);fill-opacity:1;" d="M 70.882812 29.347656 C 70.875 29.347656 70.871094 29.347656 70.863281 29.347656 C 70.792969 29.339844 69.101562 29.203125 68.074219 27.367188 C 68.007812 27.246094 68.050781 27.097656 68.167969 27.03125 C 68.289062 26.964844 68.4375 27.007812 68.503906 27.125 C 69.398438 28.722656 70.835938 28.851562 70.898438 28.855469 C 71.035156 28.867188 71.136719 28.984375 71.125 29.121094 C 71.113281 29.246094 71.007812 29.347656 70.882812 29.347656 Z M 70.882812 29.347656 "/>
<path style=" stroke:none;fill-rule:nonzero;fill:rgb(86.666667%,54.509804%,71.764706%);fill-opacity:1;" d="M 67.503906 33.046875 C 67.015625 32.804688 66.625 32.398438 66.210938 32.046875 C 65.992188 31.863281 65.273438 31.011719 65.863281 30.804688 C 66.421875 30.609375 67.253906 30.847656 67.746094 31.121094 C 68.542969 31.5625 69.207031 32.402344 68.984375 32.890625 C 68.820312 33.253906 68.269531 33.285156 67.984375 33.199219 C 67.871094 33.164062 67.609375 33.101562 67.503906 33.046875 Z M 67.503906 33.046875 "/>
<path style=" stroke:none;fill-rule:nonzero;fill:rgb(86.666667%,54.509804%,71.764706%);fill-opacity:1;" d="M 56.601562 27.199219 C 56.601562 27.199219 55.019531 27.0625 54.679688 26.339844 C 54.339844 25.617188 54.519531 25.121094 55.378906 25.09375 C 56.242188 25.074219 57.191406 25.886719 57.347656 26.363281 C 57.507812 26.839844 57.269531 27.316406 56.601562 27.199219 Z M 56.601562 27.199219 "/>
<path style=" stroke:none;fill-rule:nonzero;fill:rgb(69.411765%,77.647059%,40%);fill-opacity:1;" d="M 55.796875 33.582031 C 55.894531 34.328125 55.988281 35.078125 56.082031 35.824219 C 56.109375 36.042969 56.140625 36.269531 56.230469 36.472656 C 56.316406 36.660156 56.449219 36.820312 56.582031 36.980469 C 56.824219 37.273438 57.074219 37.5625 57.316406 37.855469 C 57.363281 37.914062 57.417969 37.992188 57.378906 38.058594 C 57.347656 38.117188 57.269531 38.125 57.203125 38.121094 C 56.992188 38.109375 56.789062 38.042969 56.609375 37.9375 C 56.628906 38.238281 56.644531 38.539062 56.660156 38.839844 C 56.664062 38.929688 56.648438 39.046875 56.5625 39.0625 C 56.496094 39.078125 56.4375 39.019531 56.402344 38.964844 C 56.226562 38.714844 56.15625 38.40625 55.980469 38.160156 C 55.710938 37.78125 55.242188 37.617188 54.855469 37.355469 C 53.949219 36.746094 53.519531 35.613281 53.394531 34.523438 "/>
<path style=" stroke:none;fill-rule:nonzero;fill:rgb(31.764706%,37.254902%,24.313725%);fill-opacity:1;" d="M 55.414062 33.582031 C 55.476562 34.082031 55.539062 34.578125 55.601562 35.078125 C 55.65625 35.507812 55.671875 35.976562 55.792969 36.398438 C 55.914062 36.796875 56.179688 37.097656 56.441406 37.414062 C 56.519531 37.503906 56.597656 37.597656 56.675781 37.691406 C 56.742188 37.769531 56.824219 37.917969 56.910156 37.972656 C 56.976562 38.101562 57.035156 38.078125 57.089844 37.898438 C 57.242188 37.78125 57.257812 37.726562 57.128906 37.730469 C 57.046875 37.675781 56.894531 37.660156 56.804688 37.609375 C 56.5625 37.472656 56.207031 37.640625 56.226562 37.941406 C 56.234375 38.109375 56.242188 38.277344 56.253906 38.441406 C 56.261719 38.550781 56.230469 38.78125 56.277344 38.871094 C 56.265625 38.972656 56.335938 38.945312 56.480469 38.800781 C 56.679688 38.785156 56.734375 38.722656 56.640625 38.617188 C 56.628906 38.5625 56.585938 38.507812 56.5625 38.453125 C 56.503906 38.332031 56.453125 38.203125 56.386719 38.085938 C 56.105469 37.597656 55.613281 37.378906 55.152344 37.09375 C 54.28125 36.554688 53.898438 35.503906 53.777344 34.527344 C 53.753906 34.320312 53.621094 34.144531 53.394531 34.144531 C 53.203125 34.140625 52.984375 34.320312 53.007812 34.527344 C 53.175781 35.886719 53.714844 37.15625 54.941406 37.863281 C 55.214844 38.019531 55.519531 38.160156 55.699219 38.433594 C 55.890625 38.730469 55.945312 39.136719 56.25 39.355469 C 56.535156 39.554688 56.917969 39.417969 57.015625 39.082031 C 57.113281 38.738281 57.015625 38.296875 56.996094 37.941406 C 56.800781 38.050781 56.609375 38.164062 56.417969 38.273438 C 56.765625 38.46875 57.519531 38.726562 57.730469 38.210938 C 57.847656 37.933594 57.691406 37.710938 57.519531 37.503906 C 57.335938 37.277344 57.144531 37.054688 56.953125 36.832031 C 56.800781 36.648438 56.628906 36.46875 56.546875 36.238281 C 56.457031 35.972656 56.445312 35.675781 56.410156 35.398438 C 56.332031 34.792969 56.257812 34.1875 56.179688 33.582031 C 56.15625 33.371094 56.023438 33.199219 55.796875 33.195312 C 55.613281 33.195312 55.390625 33.375 55.414062 33.582031 Z M 55.414062 33.582031 "/>
<path style=" stroke:none;fill-rule:nonzero;fill:rgb(69.411765%,77.647059%,40%);fill-opacity:1;" d="M 62.964844 36.640625 C 63.046875 37.140625 62.601562 37.570312 62.15625 37.800781 C 61.234375 38.285156 60.101562 38.347656 59.128906 37.976562 C 59.082031 37.957031 59.027344 37.9375 58.984375 37.960938 C 58.953125 37.976562 58.929688 38.015625 58.914062 38.046875 C 58.816406 38.261719 58.804688 38.519531 58.882812 38.738281 C 58.941406 38.90625 59.050781 39.074219 59 39.242188 C 58.917969 39.535156 58.4375 39.582031 58.386719 39.878906 C 58.523438 40.003906 58.730469 39.878906 58.894531 39.796875 C 59.222656 39.628906 59.609375 39.640625 59.980469 39.636719 C 61.0625 39.625 62.144531 39.414062 63.15625 39.027344 "/>
<path style=" stroke:none;fill-rule:nonzero;fill:rgb(31.764706%,37.254902%,24.313725%);fill-opacity:1;" d="M 62.578125 36.640625 C 62.644531 37.207031 61.941406 37.519531 61.5 37.664062 C 60.890625 37.863281 60.230469 37.890625 59.613281 37.726562 C 59.296875 37.644531 58.945312 37.4375 58.667969 37.726562 C 58.441406 37.964844 58.417969 38.386719 58.472656 38.691406 C 58.492188 38.792969 58.648438 39.042969 58.625 39.132812 C 58.617188 39.144531 58.574219 39.175781 58.53125 39.203125 C 58.300781 39.351562 58.089844 39.5 58.015625 39.78125 C 57.96875 39.953125 58.046875 40.121094 58.191406 40.214844 C 58.605469 40.488281 58.957031 40.117188 59.367188 40.054688 C 59.765625 39.988281 60.1875 40.03125 60.59375 40 C 61.503906 39.925781 62.402344 39.726562 63.257812 39.402344 C 63.449219 39.328125 63.585938 39.140625 63.523438 38.929688 C 63.472656 38.742188 63.246094 38.585938 63.050781 38.660156 C 62.289062 38.949219 61.492188 39.148438 60.679688 39.222656 C 60.285156 39.257812 59.894531 39.242188 59.5 39.269531 C 59.3125 39.28125 59.117188 39.308594 58.9375 39.367188 C 58.855469 39.398438 58.777344 39.433594 58.699219 39.46875 C 58.65625 39.492188 58.613281 39.515625 58.570312 39.535156 C 58.507812 39.550781 58.511719 39.554688 58.578125 39.554688 C 58.640625 39.699219 58.699219 39.84375 58.753906 39.988281 C 58.765625 39.941406 58.925781 39.871094 58.988281 39.828125 C 59.144531 39.714844 59.289062 39.585938 59.355469 39.398438 C 59.425781 39.191406 59.390625 38.984375 59.308594 38.785156 C 59.253906 38.652344 59.136719 38.339844 59.253906 38.238281 C 59.164062 38.277344 59.070312 38.3125 58.980469 38.351562 C 59.070312 38.339844 59.203125 38.414062 59.289062 38.441406 C 59.394531 38.472656 59.496094 38.496094 59.601562 38.519531 C 59.828125 38.5625 60.0625 38.59375 60.296875 38.601562 C 60.769531 38.617188 61.253906 38.554688 61.703125 38.40625 C 62.460938 38.160156 63.453125 37.582031 63.347656 36.644531 C 63.324219 36.4375 63.1875 36.257812 62.960938 36.257812 C 62.773438 36.257812 62.554688 36.433594 62.578125 36.640625 Z M 62.578125 36.640625 "/>
<path style=" stroke:none;fill-rule:nonzero;fill:rgb(31.764706%,37.254902%,24.313725%);fill-opacity:1;" d="M 67.265625 26.34375 C 68.144531 26.449219 68.941406 25.832031 69.8125 25.753906 C 70.625 25.683594 71.457031 25.890625 72.035156 26.492188 C 73.339844 27.847656 72 29.734375 71.4375 31.105469 C 71.097656 31.933594 71.019531 32.820312 70.757812 33.671875 C 70.5625 34.308594 70.152344 35.046875 69.449219 35.21875 C 69.058594 35.308594 68.644531 35.207031 68.253906 35.1875 C 67.8125 35.164062 67.367188 35.1875 66.925781 35.195312 C 65.980469 35.203125 65.042969 35.132812 64.109375 35.011719 C 62.355469 34.785156 60.59375 34.421875 58.871094 33.996094 C 57.53125 33.664062 56.046875 33.160156 55.261719 31.933594 C 54.828125 31.261719 54.640625 30.46875 54.417969 29.707031 C 54.183594 28.914062 53.804688 28.175781 53.566406 27.390625 C 53.324219 26.605469 53.414062 25.875 53.890625 25.203125 C 54.3125 24.597656 54.925781 24.132812 55.535156 23.726562 C 56.320312 23.199219 57.1875 22.785156 57.960938 22.246094 C 58.320312 21.996094 58.507812 21.667969 58.730469 21.300781 C 58.949219 20.933594 59.261719 20.644531 59.660156 20.472656 C 60.402344 20.148438 61.265625 20.355469 61.761719 21.003906 C 62.074219 21.410156 62.070312 21.824219 62.113281 22.3125 C 62.160156 22.800781 62.929688 22.808594 62.886719 22.3125 C 62.839844 21.835938 62.835938 21.371094 62.621094 20.933594 C 62.285156 20.25 61.59375 19.730469 60.84375 19.589844 C 60.058594 19.445312 59.253906 19.699219 58.648438 20.210938 C 58.300781 20.503906 58.121094 20.867188 57.878906 21.238281 C 57.609375 21.652344 57.132812 21.839844 56.71875 22.082031 C 55.296875 22.914062 53.519531 23.875 52.863281 25.484375 C 52.507812 26.359375 52.671875 27.257812 53.007812 28.109375 C 53.355469 28.996094 53.648438 29.871094 53.929688 30.78125 C 54.1875 31.605469 54.535156 32.398438 55.152344 33.023438 C 55.722656 33.601562 56.441406 33.992188 57.1875 34.285156 C 57.9375 34.578125 58.71875 34.765625 59.503906 34.9375 C 60.558594 35.164062 61.617188 35.390625 62.683594 35.574219 C 63.742188 35.757812 64.8125 35.898438 65.886719 35.949219 C 66.878906 35.996094 67.871094 35.9375 68.863281 36.015625 C 69.730469 36.078125 70.445312 35.714844 70.953125 35.015625 C 71.507812 34.261719 71.632812 33.328125 71.832031 32.4375 C 72.265625 30.519531 74.238281 28.367188 72.925781 26.378906 C 72.414062 25.605469 71.558594 25.128906 70.644531 25.007812 C 70.105469 24.9375 69.554688 24.988281 69.03125 25.121094 C 68.449219 25.265625 67.882812 25.648438 67.269531 25.574219 C 66.773438 25.511719 66.777344 26.285156 67.265625 26.34375 Z M 67.265625 26.34375 "/>
<path style=" stroke:none;fill-rule:nonzero;fill:rgb(31.764706%,37.254902%,24.313725%);fill-opacity:1;" d="M 53.933594 29.867188 C 52.292969 30.890625 51.066406 32.542969 50.597656 34.425781 C 50.539062 34.652344 50.496094 34.882812 50.464844 35.109375 C 50.4375 35.285156 50.46875 35.554688 50.296875 35.628906 C 50.113281 35.710938 49.730469 35.644531 49.527344 35.652344 C 49.25 35.667969 48.972656 35.695312 48.695312 35.738281 C 47.613281 35.902344 46.578125 36.289062 45.644531 36.859375 C 45.78125 37.097656 45.921875 37.335938 46.0625 37.574219 C 46.90625 37.03125 47.832031 36.695312 48.824219 36.550781 C 48.667969 36.347656 48.511719 36.144531 48.355469 35.945312 C 47.738281 36.796875 47.117188 37.648438 46.5 38.503906 C 46.238281 38.863281 46.730469 39.238281 47.066406 39.066406 C 47.570312 38.808594 47.90625 38.386719 48.253906 37.953125 C 48.59375 37.523438 48.996094 37.027344 49.597656 37.0625 C 49.460938 36.921875 49.324219 36.785156 49.183594 36.648438 C 49.347656 37.964844 49.351562 39.300781 49.160156 40.617188 C 49.085938 41.132812 49.875 41.363281 49.957031 40.835938 C 50.019531 40.441406 50.113281 40.074219 50.242188 39.699219 C 50.546875 38.835938 50.761719 37.941406 50.980469 37.054688 C 50.75 37.117188 50.519531 37.175781 50.289062 37.238281 C 51.09375 37.9375 51.574219 38.898438 52.269531 39.691406 C 52.941406 40.457031 53.8125 40.898438 54.796875 41.148438 C 55.769531 41.394531 56.796875 41.472656 57.726562 41.859375 C 57.863281 41.914062 58.355469 42.09375 58.417969 42.238281 C 58.492188 42.429688 58.191406 42.863281 58.113281 43.039062 C 57.832031 43.679688 57.550781 44.316406 57.269531 44.953125 C 57.09375 45.351562 57.578125 45.832031 57.917969 45.457031 C 58.488281 44.832031 59.058594 44.214844 59.628906 43.589844 C 59.394531 43.492188 59.15625 43.394531 58.921875 43.296875 C 58.960938 44.179688 59.109375 45.046875 59.371094 45.890625 C 59.527344 46.40625 60.261719 46.1875 60.164062 45.667969 C 60.097656 45.300781 59.902344 43.949219 60.472656 43.90625 C 60.734375 43.886719 61.023438 44 61.28125 44.042969 C 61.574219 44.089844 61.871094 44.125 62.167969 44.132812 C 63.332031 44.164062 64.347656 43.730469 65.144531 42.886719 C 66.707031 41.230469 67.921875 38.859375 67.726562 36.539062 C 67.679688 36.011719 66.855469 36.007812 66.898438 36.539062 C 67.003906 37.777344 66.679688 38.972656 66.109375 40.066406 C 65.589844 41.070312 64.875 42.238281 63.90625 42.871094 C 63.386719 43.207031 62.785156 43.324219 62.167969 43.308594 C 61.597656 43.292969 61.039062 43.074219 60.472656 43.082031 C 59.09375 43.101562 59.195312 44.9375 59.371094 45.890625 C 59.636719 45.816406 59.902344 45.742188 60.164062 45.667969 C 59.925781 44.894531 59.785156 44.109375 59.746094 43.296875 C 59.730469 42.960938 59.296875 42.726562 59.042969 43.003906 C 58.472656 43.628906 57.902344 44.25 57.332031 44.871094 C 57.546875 45.039062 57.765625 45.207031 57.980469 45.371094 C 58.28125 44.6875 58.582031 44.007812 58.886719 43.324219 C 59.105469 42.824219 59.492188 42.222656 59.0625 41.730469 C 58.71875 41.332031 58.105469 41.105469 57.621094 40.945312 C 57.109375 40.773438 56.570312 40.675781 56.039062 40.570312 C 54.933594 40.355469 53.820312 40.125 53.007812 39.277344 C 52.226562 38.460938 51.734375 37.40625 50.871094 36.65625 C 50.648438 36.460938 50.257812 36.519531 50.183594 36.839844 C 49.964844 37.726562 49.746094 38.617188 49.445312 39.484375 C 49.316406 39.859375 49.21875 40.226562 49.160156 40.621094 C 49.425781 40.695312 49.691406 40.769531 49.957031 40.839844 C 50.15625 39.445312 50.183594 38.050781 50.007812 36.652344 C 49.980469 36.417969 49.839844 36.253906 49.59375 36.238281 C 48.953125 36.199219 48.398438 36.550781 47.972656 37.003906 C 47.535156 37.46875 47.230469 38.058594 46.644531 38.355469 C 46.832031 38.546875 47.019531 38.734375 47.210938 38.921875 C 47.828125 38.070312 48.449219 37.21875 49.066406 36.363281 C 49.304688 36.035156 48.910156 35.710938 48.601562 35.757812 C 47.542969 35.90625 46.539062 36.285156 45.640625 36.859375 C 45.195312 37.148438 45.601562 37.851562 46.058594 37.574219 C 47.015625 36.996094 48.082031 36.613281 49.199219 36.507812 C 49.667969 36.460938 50.222656 36.5625 50.664062 36.378906 C 51.132812 36.1875 51.199219 35.789062 51.257812 35.335938 C 51.523438 33.390625 52.683594 31.617188 54.347656 30.582031 C 54.800781 30.300781 54.386719 29.585938 53.933594 29.867188 Z M 53.933594 29.867188 "/>
<path style=" stroke:none;fill-rule:nonzero;fill:rgb(31.764706%,37.254902%,24.313725%);fill-opacity:1;" d="M 67.59375 25.925781 C 67.230469 25.46875 66.867188 25.03125 66.472656 24.632812 C 66.171875 24.308594 65.933594 24.101562 65.515625 23.976562 C 64.332031 23.523438 63.15625 22.824219 61.855469 22.824219 C 61.855469 22.824219 61.839844 22.734375 61.839844 22.734375 C 62.132812 22.640625 62.4375 22.632812 62.738281 22.640625 C 64.234375 22.742188 65.886719 23.019531 66.980469 24.125 C 67.414062 24.554688 67.800781 25.015625 68.15625 25.480469 C 68.152344 25.480469 67.59375 25.925781 67.59375 25.925781 Z M 67.59375 25.925781 "/>
<path style=" stroke:none;fill-rule:nonzero;fill:rgb(69.411765%,77.647059%,40%);fill-opacity:1;" d="M 59.070312 42.089844 C 59.070312 42.089844 59.5625 40.28125 60.40625 40.199219 C 61.253906 40.121094 62.472656 40.417969 62.472656 40.417969 "/>
<path style=" stroke:none;fill-rule:nonzero;fill:rgb(31.764706%,37.254902%,24.313725%);fill-opacity:1;" d="M 59.070312 42.398438 C 59.042969 42.398438 59.015625 42.394531 58.988281 42.386719 C 58.824219 42.34375 58.726562 42.175781 58.773438 42.007812 C 58.832031 41.800781 59.351562 39.992188 60.378906 39.894531 C 61.265625 39.8125 62.492188 40.105469 62.542969 40.121094 C 62.707031 40.160156 62.808594 40.324219 62.769531 40.492188 C 62.730469 40.65625 62.5625 40.757812 62.398438 40.71875 C 62.386719 40.714844 61.21875 40.4375 60.4375 40.507812 C 60 40.546875 59.550781 41.503906 59.367188 42.171875 C 59.328125 42.308594 59.203125 42.398438 59.070312 42.398438 Z M 59.070312 42.398438 "/>
<path style=" stroke:none;fill-rule:nonzero;fill:rgb(31.764706%,37.254902%,24.313725%);fill-opacity:1;" d="M 55.035156 28.984375 C 54.960938 28.984375 54.890625 28.941406 54.863281 28.867188 C 54.828125 28.773438 54.871094 28.664062 54.96875 28.628906 C 55.066406 28.589844 57.425781 27.652344 58.96875 27.992188 C 59.066406 28.015625 59.132812 28.113281 59.109375 28.210938 C 59.085938 28.3125 58.988281 28.375 58.890625 28.355469 C 57.460938 28.039062 55.128906 28.964844 55.105469 28.972656 C 55.082031 28.980469 55.058594 28.984375 55.035156 28.984375 Z M 55.035156 28.984375 "/>
<path style=" stroke:none;fill-rule:nonzero;fill:rgb(31.764706%,37.254902%,24.313725%);fill-opacity:1;" d="M 66.359375 34.46875 C 66.28125 34.46875 66.210938 34.421875 66.183594 34.347656 C 65.074219 31.1875 59.761719 28.785156 59.707031 28.761719 C 59.617188 28.722656 59.574219 28.613281 59.613281 28.519531 C 59.65625 28.425781 59.765625 28.382812 59.859375 28.425781 C 60.082031 28.523438 65.367188 30.914062 66.53125 34.222656 C 66.566406 34.320312 66.515625 34.425781 66.421875 34.457031 C 66.402344 34.464844 66.378906 34.46875 66.359375 34.46875 Z M 66.359375 34.46875 "/>
<path style=" stroke:none;fill-rule:nonzero;fill:rgb(83.529412%,83.529412%,83.529412%);fill-opacity:1;" d="M 54.519531 48.542969 C 54.519531 48.542969 58.195312 50.378906 57.539062 54.089844 C 56.886719 57.800781 56.464844 59.613281 54.519531 59.652344 C 52.570312 59.6875 60.734375 59.84375 66.710938 54.492188 C 74.875 47.1875 75.351562 38.855469 76.527344 35.566406 C 76.984375 34.285156 73.714844 43.40625 64.554688 46.359375 C 56.621094 48.914062 54.519531 48.542969 54.519531 48.542969 Z M 54.519531 48.542969 "/>
<path style=" stroke:none;fill-rule:nonzero;fill:rgb(39.607843%,32.156863%,30.588235%);fill-opacity:1;" d="M 53.097656 60 C 52.921875 60 52.742188 60 52.566406 59.996094 C 39.609375 59.738281 32.835938 46.3125 28.714844 36.617188 L 28.667969 36.503906 L 28.757812 36.265625 C 28.796875 36.15625 28.640625 36.558594 28.683594 36.453125 L 28.984375 35.703125 L 29.257812 36.460938 C 32.019531 44.132812 42.753906 46.953125 48.90625 47.949219 C 54.246094 48.8125 61.015625 47.714844 67.019531 45.019531 C 71.316406 43.09375 75.011719 39.152344 76.445312 34.980469 L 77.039062 35.132812 C 75.613281 43.558594 72.296875 50.074219 67.1875 54.492188 C 62.742188 58.335938 58.5 60 53.097656 60 Z M 30.371094 39.78125 C 34.542969 48.808594 41.222656 59.152344 52.574219 59.378906 C 58.070312 59.496094 62.320312 57.886719 66.785156 54.023438 C 71.242188 50.167969 74.308594 44.671875 75.914062 37.652344 C 74.035156 41.007812 70.855469 43.972656 67.273438 45.578125 C 61.167969 48.320312 54.265625 49.433594 48.8125 48.550781 C 43.421875 47.679688 34.589844 45.425781 30.371094 39.78125 Z M 30.371094 39.78125 "/>
<path style=" stroke:none;fill-rule:nonzero;fill:rgb(69.411765%,77.647059%,40%);fill-opacity:1;" d="M 44.410156 38.242188 C 44.160156 38.75 43.742188 39.167969 43.226562 39.292969 C 42.652344 39.433594 42.050781 39.304688 41.515625 39.070312 C 41.4375 39.039062 41.097656 38.933594 41.0625 38.839844 C 41.0625 38.84375 41.648438 40.476562 42.25 41.3125 C 42.488281 41.644531 42.753906 41.882812 43.089844 42.089844 C 43.394531 42.273438 44.003906 42.542969 44.003906 43.003906 C 44.003906 43.289062 43.609375 43.398438 43.609375 43.398438 C 41.359375 42.355469 40.691406 39.394531 40.6875 39.382812 C 40.753906 39.679688 40.5 40.15625 40.339844 40.378906 C 39.601562 41.394531 37.539062 41.734375 36.714844 40.667969 C 36.316406 40.15625 36.503906 39.378906 36.613281 38.792969 C 37.027344 36.675781 37.3125 34.542969 37.25 32.371094 C 37.253906 32.554688 37.753906 32.914062 37.859375 33.007812 C 38.84375 33.855469 39.867188 34.277344 41.070312 34.582031 C 41.960938 34.808594 42.917969 35.011719 43.710938 35.535156 C 44.421875 36.003906 44.792969 36.742188 44.613281 37.648438 C 44.570312 37.851562 44.5 38.050781 44.410156 38.242188 Z M 44.410156 38.242188 "/>
<path style=" stroke:none;fill-rule:nonzero;fill:rgb(31.764706%,37.254902%,24.313725%);fill-opacity:1;" d="M 37.246094 32.375 C 37.25 32.558594 37.75 32.917969 37.859375 33.007812 C 38.839844 33.859375 39.867188 34.28125 41.066406 34.585938 C 41.960938 34.8125 42.914062 35.015625 43.710938 35.539062 C 44.421875 36.007812 44.789062 36.746094 44.609375 37.652344 C 44.570312 37.851562 44.5 38.054688 44.410156 38.242188 C 44.160156 38.75 43.742188 39.167969 43.226562 39.292969 C 43.066406 39.332031 42.898438 39.355469 42.730469 39.355469 C 42.316406 39.355469 41.898438 39.238281 41.515625 39.074219 C 41.4375 39.042969 41.097656 38.9375 41.0625 38.84375 C 41.0625 38.84375 41.648438 40.476562 42.25 41.316406 C 42.488281 41.644531 42.753906 41.882812 43.089844 42.089844 C 43.394531 42.277344 44.003906 42.542969 44.003906 43.003906 C 44.003906 43.289062 43.609375 43.402344 43.609375 43.402344 C 41.359375 42.359375 40.691406 39.398438 40.6875 39.386719 C 40.753906 39.683594 40.5 40.160156 40.339844 40.382812 C 39.917969 40.964844 39.058594 41.324219 38.246094 41.324219 C 37.644531 41.324219 37.066406 41.121094 36.714844 40.667969 C 36.316406 40.160156 36.503906 39.382812 36.613281 38.792969 C 37.023438 36.679688 37.308594 34.542969 37.246094 32.375 M 38.011719 31.984375 C 38.011719 31.984375 38.117188 32.117188 38.125 32.347656 L 36.367188 32.402344 C 36.421875 34.230469 36.230469 36.148438 35.75 38.628906 L 35.730469 38.730469 C 35.597656 39.398438 35.398438 40.410156 36.015625 41.207031 C 36.511719 41.847656 37.304688 42.203125 38.246094 42.203125 C 39.09375 42.203125 39.929688 41.914062 40.535156 41.429688 C 41.054688 42.429688 41.90625 43.582031 43.238281 44.199219 C 43.355469 44.253906 43.480469 44.28125 43.609375 44.28125 C 43.691406 44.28125 43.769531 44.269531 43.847656 44.25 C 44.363281 44.101562 44.882812 43.660156 44.882812 43.007812 C 44.882812 42.105469 44.066406 41.640625 43.675781 41.417969 C 43.628906 41.390625 43.585938 41.367188 43.550781 41.34375 C 43.300781 41.191406 43.125 41.027344 42.964844 40.804688 C 42.851562 40.648438 42.734375 40.445312 42.621094 40.230469 C 42.65625 40.234375 42.691406 40.234375 42.730469 40.234375 C 42.972656 40.234375 43.210938 40.203125 43.4375 40.148438 C 44.171875 39.96875 44.8125 39.414062 45.195312 38.628906 C 45.320312 38.371094 45.414062 38.097656 45.46875 37.824219 C 45.710938 36.617188 45.230469 35.492188 44.191406 34.804688 C 43.347656 34.25 42.382812 34.011719 41.53125 33.796875 L 41.28125 33.734375 C 40.035156 33.417969 39.207031 33.015625 38.433594 32.347656 C 38.40625 32.324219 38.367188 32.292969 38.316406 32.253906 C 38.253906 32.203125 38.0625 32.050781 38.011719 31.984375 Z M 38.011719 31.984375 "/>
<path style="fill:none;stroke-width:3.9929;stroke-linecap:round;stroke-linejoin:round;stroke:rgb(31.764706%,37.254902%,24.313725%);stroke-opacity:1;stroke-miterlimit:10;" d="M 184.375 175.514915 C 184.375 175.514915 176.846591 168.50142 175.692472 162.766335 " transform="matrix(0.22,0,0,0.22,0,0)"/>
<path style=" stroke:none;fill-rule:nonzero;fill:rgb(39.607843%,32.156863%,30.588235%);fill-opacity:1;" d="M 29.492188 39.34375 L 28.636719 36.570312 L 28.445312 35.953125 C 28.46875 36.019531 28.546875 36.234375 28.644531 36.546875 C 28.875 37.226562 29.238281 38.367188 29.492188 39.34375 Z M 29.492188 39.34375 "/>
</g>
</svg>
