<?xml version="1.0" encoding="UTF-8"?>
<svg xmlns="http://www.w3.org/2000/svg" xmlns:xlink="http://www.w3.org/1999/xlink" width="150px" height="150px" viewBox="0 0 150 150" version="1.1">
<g id="surface1">
<path style=" stroke:none;fill-rule:nonzero;fill:rgb(25.490196%,14.509804%,10.980392%);fill-opacity:1;" d="M 24.328125 101.292969 C 24.328125 101.292969 36.324219 101.273438 39.019531 101.273438 C 40.449219 101.273438 43.027344 102.339844 41.992188 104.304688 C 41.179688 105.847656 38.867188 105.152344 37.519531 105.03125 C 35.261719 104.824219 34.3125 104.773438 32.050781 104.875 C 30.859375 104.929688 25.992188 104.671875 25.535156 105.46875 C 25.105469 106.210938 25.566406 107.625 25.667969 108.425781 C 26.148438 112.195312 25.550781 118.304688 23.78125 123.402344 C 23.269531 124.871094 21.589844 126.523438 20.828125 126.605469 C 20.070312 126.691406 18.214844 126.523438 18.550781 124.496094 C 18.886719 122.472656 22.136719 116.554688 22.222656 114.109375 C 22.285156 112.183594 22.375 110.230469 22.105469 108.316406 C 21.863281 106.585938 20.851562 104.878906 20.914062 103.125 C 20.996094 100.964844 22.703125 101.292969 24.328125 101.292969 Z M 24.328125 101.292969 "/>
<path style=" stroke:none;fill-rule:nonzero;fill:rgb(25.490196%,14.509804%,10.980392%);fill-opacity:1;" d="M 30.738281 110.953125 C 30.769531 110.804688 30.804688 110.65625 30.84375 110.515625 C 31.09375 109.605469 32.140625 108.347656 33.007812 109.375 C 33.980469 110.53125 33.714844 112.417969 33.785156 113.824219 C 33.949219 117.085938 33.878906 120.355469 34.207031 123.601562 C 34.316406 124.695312 34.613281 126.203125 33.691406 127.046875 C 33.03125 127.65625 31.765625 127.71875 30.9375 127.515625 C 29.632812 127.195312 29.734375 126.167969 29.785156 125.03125 C 29.925781 121.648438 30.128906 118.277344 30.402344 114.902344 C 30.5 113.625 30.472656 112.230469 30.738281 110.953125 Z M 30.738281 110.953125 "/>
<path style=" stroke:none;fill-rule:nonzero;fill:rgb(25.490196%,14.509804%,10.980392%);fill-opacity:1;" d="M 37.945312 111.382812 C 38.140625 112.730469 38.660156 113.996094 39.0625 115.292969 C 39.75 117.5 40.003906 119.8125 40.652344 122.035156 C 41.195312 123.886719 42.507812 128.257812 45.292969 127.074219 C 46.144531 126.714844 45.953125 125.089844 45.292969 122.828125 C 44.074219 118.65625 42.988281 114.785156 40.6875 110.710938 C 40.402344 110.207031 39.59375 108.714844 38.539062 108.992188 C 37.59375 109.238281 37.855469 110.734375 37.945312 111.382812 Z M 37.945312 111.382812 "/>
<path style=" stroke:none;fill-rule:nonzero;fill:rgb(25.490196%,14.509804%,10.980392%);fill-opacity:1;" d="M 83.863281 126.609375 C 81.664062 125.449219 79.53125 126.03125 77.160156 126.03125 C 76.222656 126.03125 76.066406 124.636719 76.105469 123.933594 C 76.21875 121.929688 78.445312 122.644531 79.828125 122.648438 C 80.523438 122.652344 81.257812 122.5625 81.589844 121.867188 C 82.117188 120.75 81.304688 119.878906 80.210938 119.824219 C 79.484375 119.789062 76.78125 120.179688 76.609375 119.929688 C 76.28125 119.433594 76.289062 118.253906 76.238281 117.71875 C 76.082031 116.070312 76.125 115.902344 77.789062 115.796875 C 78.722656 115.738281 79.109375 115.90625 80.046875 115.902344 C 80.851562 115.898438 81.316406 116.148438 82.070312 115.796875 C 82.75 115.480469 83.078125 114.222656 82.726562 113.578125 C 82.515625 113.199219 81.398438 113.113281 80.238281 113.160156 C 79.285156 113.195312 78.941406 113.128906 77.988281 113.167969 C 77.089844 113.207031 76.371094 113.390625 76.128906 112.324219 C 75.96875 111.632812 75.972656 110.261719 76.777344 109.9375 C 78.007812 109.445312 80.71875 110.472656 81.433594 108.984375 C 81.652344 108.535156 81.707031 107.914062 81.464844 107.464844 C 81.113281 106.816406 80.410156 106.898438 79.777344 106.898438 C 79.25 106.898438 77.074219 107.074219 76.675781 106.894531 C 76.28125 106.710938 76.152344 105.53125 76.152344 104.835938 C 76.152344 104.085938 76.621094 101.921875 75.703125 101.535156 C 75.289062 101.359375 74.503906 101.433594 74.101562 101.605469 C 73.105469 102.035156 73.664062 104.078125 73.664062 104.917969 C 73.664062 105.191406 73.621094 106.015625 73.621094 106.164062 C 73.621094 107.308594 70.550781 106.339844 69.941406 107.054688 C 69.5625 107.5 69.570312 108.484375 69.835938 108.984375 C 70.5 110.21875 71.957031 109.53125 73.035156 109.753906 C 74.128906 109.980469 73.789062 113.144531 72.886719 113.246094 C 72.019531 113.347656 71.121094 113.199219 70.246094 113.203125 C 69.101562 113.214844 68.507812 114.132812 68.941406 115.238281 C 69.109375 115.675781 69.171875 115.886719 69.535156 115.992188 C 70.074219 116.144531 70.738281 116.078125 71.292969 116.089844 C 71.8125 116.101562 72.78125 115.921875 73.261719 116.128906 C 73.917969 116.410156 73.71875 118.71875 73.535156 119.59375 C 73.273438 120.84375 71.488281 119.609375 71.003906 119.222656 C 70.199219 118.582031 69.351562 117.820312 68.257812 118.265625 C 66.371094 119.035156 66.964844 121.308594 68.507812 122.015625 C 69.550781 122.492188 70.710938 122.269531 71.8125 122.4375 C 73.148438 122.644531 73.035156 124.851562 72.714844 125.773438 C 72.394531 126.691406 70.671875 126.359375 69.992188 126.238281 C 68.78125 126.011719 67.765625 125.636719 67.027344 124.589844 C 66.375 123.667969 66.019531 121.863281 64.777344 121.605469 C 63.328125 121.304688 62.402344 122.34375 62.851562 123.835938 C 63.042969 124.46875 62.957031 124.738281 62.808594 124.785156 C 61.988281 125.027344 60.75 125.472656 60.429688 125.050781 C 59.945312 124.417969 59.757812 122.945312 59.726562 122.214844 C 59.683594 121.257812 59.371094 118.816406 60.132812 118.734375 C 61.84375 118.554688 64.492188 118.855469 65.960938 117.726562 C 66.910156 116.992188 67.429688 115.828125 67.46875 114.640625 C 67.519531 113.011719 67.753906 111.484375 66.964844 109.984375 C 66.371094 108.863281 65.121094 108.59375 63.96875 108.589844 C 63.273438 108.589844 60.769531 108.84375 60.363281 108.167969 C 60.109375 107.75 60.382812 103.996094 60.382812 103.386719 C 60.382812 102.773438 60.363281 102.183594 59.980469 101.929688 C 59.605469 101.675781 58.695312 101.402344 58.25 102.121094 C 57.808594 102.835938 57.644531 103.65625 57.703125 104.203125 C 57.839844 105.40625 57.742188 106.660156 57.730469 107.871094 C 57.730469 107.980469 54.808594 107.882812 54.539062 107.890625 C 52.929688 107.9375 51.308594 109.042969 51.097656 110.734375 C 50.894531 112.429688 50.476562 115.414062 50.722656 116.578125 C 50.980469 117.742188 53.011719 118.46875 54.1875 118.652344 C 55.113281 118.800781 56.449219 118.671875 56.988281 118.941406 C 57.320312 119.109375 57.148438 119.980469 57.214844 120.835938 C 57.308594 122.046875 57.472656 123.257812 57.417969 124.472656 C 57.355469 125.722656 56.105469 125.320312 55.15625 124.6875 C 54.488281 124.242188 54.117188 123.355469 53.175781 123.601562 C 52.773438 123.707031 52.160156 124.066406 52.117188 124.714844 C 52.0625 125.664062 53.503906 127.015625 54.203125 127.523438 C 55.328125 128.34375 56.734375 128.464844 58.078125 128.449219 C 60.121094 128.417969 61.9375 128.027344 63.714844 127.144531 C 64.054688 126.976562 64.9375 128 65.550781 128.425781 C 66.160156 128.851562 67.699219 129.042969 69.007812 128.996094 C 71.769531 128.902344 74.535156 128.757812 77.300781 128.773438 C 78.664062 128.785156 79.980469 128.859375 81.328125 129.039062 C 82.171875 129.152344 83.253906 129.351562 84.007812 128.832031 C 84.679688 128.363281 84.617188 127.007812 83.863281 126.609375 Z M 60.121094 113.820312 C 60.121094 113.308594 60.121094 112.800781 60.121094 112.289062 C 60.121094 112 60.121094 111.707031 60.121094 111.421875 C 60.121094 110.503906 62.179688 110.753906 62.761719 110.929688 C 63.367188 111.113281 63.976562 111.371094 64.136719 112.050781 C 64.351562 112.957031 64.507812 113.910156 64.285156 114.832031 C 64.199219 115.1875 64.082031 115.585938 63.820312 115.855469 C 63.40625 116.265625 62.664062 116.164062 62.140625 116.171875 C 61.726562 116.179688 61.277344 116.257812 60.886719 116.09375 C 60.601562 115.972656 60.121094 115.636719 60.121094 115.285156 C 60.121094 115.285156 60.121094 113.820312 60.121094 113.820312 Z M 57.300781 114.886719 C 57.253906 115.3125 57.382812 115.652344 57.089844 115.761719 C 56.796875 115.863281 53.507812 115.84375 53.253906 114.742188 C 53 113.644531 52.996094 112.988281 53.042969 112.507812 C 53.082031 112.027344 53.082031 111.085938 53.839844 110.878906 C 54.59375 110.671875 56.289062 110.664062 56.839844 110.804688 C 57.382812 110.941406 57.300781 111.210938 57.300781 111.210938 C 57.300781 111.210938 57.300781 111.265625 57.300781 111.355469 C 57.308594 111.984375 57.335938 114.511719 57.300781 114.886719 Z M 57.300781 114.886719 "/>
<path style=" stroke:none;fill-rule:nonzero;fill:rgb(69.411765%,77.647059%,40%);fill-opacity:1;" d="M 87.9375 128.496094 C 89.035156 129.097656 90.542969 129.0625 91.699219 128.671875 C 92.734375 128.324219 92.59375 126.675781 92.554688 125.792969 C 92.511719 124.722656 92.136719 123.644531 90.96875 123.398438 C 90.148438 123.226562 88.578125 123.167969 87.898438 123.761719 C 87.292969 124.285156 86.996094 125.402344 86.941406 126.167969 C 86.894531 126.835938 87.125 127.589844 87.507812 128.132812 C 87.613281 128.277344 87.761719 128.398438 87.9375 128.496094 Z M 87.9375 128.496094 "/>
<path style=" stroke:none;fill-rule:nonzero;fill:rgb(69.411765%,77.647059%,40%);fill-opacity:1;" d="M 104.214844 118.285156 C 104.25 118.808594 103.703125 119.347656 102.964844 119.535156 C 102.214844 119.722656 101.511719 119.6875 100.519531 119.6875 L 100.347656 119.6875 C 100.339844 120.933594 100.28125 123.253906 100.359375 123.9375 C 100.457031 124.800781 100.304688 125.25 100.734375 125.300781 C 101.164062 125.359375 103.207031 125.296875 103.5 126.097656 C 103.789062 126.898438 103.886719 127.3125 103.628906 128.304688 C 103.378906 129.289062 100.304688 129.199219 99.34375 129.054688 C 98.386719 128.902344 97.777344 128.304688 97.582031 127.539062 C 97.441406 126.976562 97.558594 122.246094 97.640625 119.667969 C 97.285156 119.667969 96.953125 119.671875 96.648438 119.683594 C 95.683594 119.714844 94.375 119.550781 93.820312 118.621094 C 93.324219 117.769531 94.074219 116.90625 94.839844 116.589844 C 95.449219 116.335938 96.148438 116.347656 96.808594 116.3125 C 97.105469 116.296875 97.40625 116.289062 97.699219 116.289062 C 97.699219 115.328125 97.695312 114.324219 97.695312 114.324219 C 97.695312 114.324219 97.640625 112.699219 97.953125 112.117188 C 98.265625 111.539062 98.792969 111.316406 99.382812 111.445312 C 99.964844 111.574219 100.375 111.730469 100.433594 112.621094 C 100.488281 113.515625 100.53125 114.472656 100.433594 114.847656 C 100.390625 115.003906 100.359375 115.628906 100.339844 116.359375 C 101.101562 116.386719 101.867188 116.410156 102.621094 116.476562 C 103.050781 116.515625 103.558594 116.566406 103.902344 116.847656 C 103.90625 116.851562 103.914062 116.851562 103.921875 116.859375 C 104.367188 117.230469 104.179688 117.796875 104.214844 118.285156 Z M 104.214844 118.285156 "/>
<path style=" stroke:none;fill-rule:nonzero;fill:rgb(69.411765%,77.647059%,40%);fill-opacity:1;" d="M 115.984375 126.507812 C 114.847656 125.992188 113.539062 126.25 112.339844 126.328125 C 111.683594 126.367188 110.980469 126.367188 110.371094 126.097656 C 109.855469 125.867188 109.4375 125.410156 109.210938 124.914062 C 108.949219 124.347656 108.925781 123.738281 109.636719 123.585938 C 110.359375 123.425781 111.164062 123.558594 111.910156 123.535156 C 113.261719 123.496094 114.398438 123.40625 115.277344 123.050781 C 116.386719 122.601562 116.878906 121.515625 116.722656 120.394531 C 116.542969 119.117188 116.503906 117.761719 115.480469 116.8125 C 114.160156 115.597656 111.109375 115.453125 109.210938 116.007812 C 107.839844 116.410156 106.515625 117.078125 106.003906 118.464844 C 105.40625 120.070312 105.457031 121.859375 105.820312 123.511719 C 106.101562 124.765625 106.554688 126.039062 107.363281 127.066406 C 108.472656 128.480469 110.144531 129.136719 111.945312 129.125 C 112.925781 129.121094 113.933594 129.226562 114.898438 128.984375 C 115.46875 128.839844 116.085938 128.515625 116.460938 128.066406 C 116.835938 127.621094 116.734375 127.003906 116.261719 126.664062 C 116.171875 126.601562 116.082031 126.550781 115.984375 126.507812 Z M 108.988281 118.960938 C 109.261719 118.589844 109.648438 118.285156 110.09375 118.113281 C 111.070312 117.730469 112.273438 117.976562 113.089844 118.617188 C 113.863281 119.21875 114.601562 120.78125 113.453125 121.425781 C 112.683594 121.855469 111.660156 121.796875 110.800781 121.816406 C 110.074219 121.832031 109.171875 121.867188 108.78125 121.140625 C 108.40625 120.441406 108.527344 119.589844 108.988281 118.960938 Z M 108.988281 118.960938 "/>
<path style=" stroke:none;fill-rule:nonzero;fill:rgb(69.411765%,77.647059%,40%);fill-opacity:1;" d="M 131.484375 127.214844 C 131.421875 126.503906 130.21875 126.355469 129.671875 125.84375 C 128.757812 124.988281 129.671875 123.578125 129.925781 122.617188 C 130.417969 120.714844 131.164062 117.589844 129.121094 116.140625 C 128.511719 115.710938 127.359375 115.402344 126.988281 116.140625 C 126.386719 117.382812 123.539062 116.371094 122.472656 116.425781 C 121.40625 116.476562 120.859375 116.902344 120.164062 117.496094 C 119.265625 118.269531 119.003906 119.539062 118.78125 120.5625 C 118.210938 123.136719 118.066406 127.628906 121.828125 128.59375 C 123.230469 128.949219 125.289062 128.386719 126.203125 128.234375 C 127.117188 128.082031 127.355469 128.570312 127.78125 128.710938 C 128.207031 128.847656 129.601562 129.40625 130.390625 128.996094 C 131.179688 128.59375 131.539062 127.925781 131.484375 127.214844 Z M 126.730469 119.65625 C 127 119.867188 127.183594 120.585938 127.171875 121.117188 C 127.148438 122.417969 126.992188 124.085938 126.265625 124.75 C 125.652344 125.304688 124.507812 125.566406 123.558594 125.554688 C 122.578125 125.539062 122.257812 125.15625 121.867188 124.46875 C 121.363281 123.585938 121.335938 122.421875 121.4375 121.417969 C 121.503906 120.777344 121.675781 120.101562 122.222656 119.609375 C 123 118.914062 124.835938 118.644531 125.871094 119.074219 C 126.242188 119.230469 126.425781 119.414062 126.730469 119.65625 Z M 126.730469 119.65625 "/>
<path style=" stroke:none;fill-rule:nonzero;fill:rgb(100%,100%,100%);fill-opacity:1;" d="M 46.84375 63.058594 C 43.507812 64.191406 36.710938 67.238281 35.265625 71.101562 C 32.785156 77.710938 36.023438 82.53125 40.796875 86.058594 C 47.972656 91.363281 58.457031 93.125 66.496094 94.09375 C 74.539062 95.058594 91.378906 93.5625 101.855469 88.957031 C 111.003906 84.9375 111.1875 80.667969 109.414062 76.089844 C 107.488281 71.101562 91.617188 63.734375 83.679688 62.347656 C 68.398438 59.679688 57.4375 59.453125 46.84375 63.058594 Z M 46.84375 63.058594 "/>
<path style=" stroke:none;fill-rule:nonzero;fill:rgb(39.607843%,32.54902%,31.372549%);fill-opacity:1;" d="M 71.878906 94.988281 C 69.777344 94.988281 67.921875 94.894531 66.421875 94.714844 C 58.097656 93.71875 47.617188 91.886719 40.421875 86.566406 C 34.378906 82.097656 32.449219 76.816406 34.675781 70.878906 C 36.492188 66.035156 45.613281 62.8125 46.644531 62.460938 C 56.734375 59.027344 67.148438 58.820312 83.789062 61.726562 C 91.960938 63.152344 107.996094 70.675781 110.003906 75.859375 C 111.757812 80.386719 112.015625 85.175781 102.109375 89.527344 C 93.34375 93.382812 80.539062 94.988281 71.878906 94.988281 Z M 47.050781 63.652344 C 43.507812 64.859375 37.164062 67.828125 35.855469 71.320312 C 33.820312 76.746094 35.558594 81.402344 41.171875 85.554688 C 48.132812 90.703125 58.402344 92.488281 66.574219 93.46875 C 74.105469 94.371094 90.914062 93.082031 101.605469 88.378906 C 110.988281 84.253906 110.257812 79.992188 108.835938 76.316406 C 106.996094 71.566406 91.300781 64.320312 83.578125 62.96875 C 67.160156 60.101562 56.917969 60.292969 47.050781 63.652344 Z M 47.050781 63.652344 "/>
<path style=" stroke:none;fill-rule:nonzero;fill:rgb(83.529412%,83.529412%,83.529412%);fill-opacity:1;" d="M 75.046875 81.246094 C 85.300781 84.367188 91.859375 87.703125 93.734375 91.3125 C 93.734375 91.3125 107.113281 91.105469 109.339844 82.761719 C 110.300781 79.164062 110.46875 78.964844 109.085938 75.421875 C 107.703125 71.878906 100.363281 68.746094 100.363281 68.746094 L 94.246094 71.09375 C 94.242188 71.09375 87.144531 79.703125 75.046875 81.246094 Z M 75.046875 81.246094 "/>
<path style=" stroke:none;fill-rule:nonzero;fill:rgb(39.607843%,32.54902%,31.372549%);fill-opacity:1;" d="M 72.257812 95.425781 C 60.480469 95.425781 48.804688 92.765625 40.421875 86.566406 C 34.378906 82.09375 32.449219 76.816406 34.675781 70.878906 C 36.488281 66.035156 45.609375 62.8125 46.640625 62.460938 C 56.734375 59.027344 67.144531 58.820312 83.785156 61.726562 C 91.960938 63.152344 107.992188 70.675781 110 75.859375 C 111.753906 80.386719 112.011719 85.175781 102.109375 89.527344 C 93.660156 93.242188 82.917969 95.425781 72.257812 95.425781 Z M 47.050781 63.652344 C 43.507812 64.859375 37.164062 67.828125 35.855469 71.320312 C 33.820312 76.746094 35.558594 81.402344 41.171875 85.554688 C 56.773438 97.09375 84.148438 96.050781 101.605469 88.378906 C 110.984375 84.253906 110.253906 79.988281 108.832031 76.3125 C 106.992188 71.5625 91.296875 64.316406 83.574219 62.96875 C 67.160156 60.101562 56.917969 60.292969 47.050781 63.652344 Z M 47.050781 63.652344 "/>
<path style=" stroke:none;fill-rule:nonzero;fill:rgb(100%,100%,100%);fill-opacity:1;" d="M 103.960938 48.9375 C 103.960938 48.9375 106.066406 46.738281 108.203125 46.390625 C 110.339844 46.039062 112.644531 47.28125 113.957031 48.9375 C 115.273438 50.59375 116.257812 54.628906 114.945312 58.480469 C 113.496094 62.730469 109.707031 65.105469 105.964844 66.699219 C 104.128906 67.480469 102.214844 68 100.363281 68.742188 C 99.382812 69.136719 98.507812 69.691406 97.558594 70.164062 C 97.023438 70.433594 94.441406 70.859375 94.246094 71.089844 C 95.867188 69.160156 97.773438 66.820312 98.730469 64.414062 C 99.582031 62.269531 102.316406 62.511719 105.09375 60.757812 C 107.875 59.007812 109.1875 56.554688 108.695312 54.976562 C 108.203125 53.398438 104.933594 52.105469 102.128906 55.207031 Z M 103.960938 48.9375 "/>
<path style=" stroke:none;fill-rule:nonzero;fill:rgb(39.607843%,32.54902%,31.372549%);fill-opacity:1;" d="M 94.617188 71.636719 C 94.621094 71.632812 94.683594 71.605469 94.753906 71.523438 L 93.730469 70.667969 C 95.457031 68.613281 97.21875 66.417969 98.109375 64.171875 C 98.734375 62.59375 100.183594 62.085938 101.722656 61.546875 C 102.652344 61.222656 103.707031 60.851562 104.734375 60.199219 C 107.296875 58.585938 108.433594 56.378906 108.058594 55.179688 C 107.929688 54.769531 107.398438 54.246094 106.53125 54.054688 C 105.226562 53.769531 103.804688 54.351562 102.621094 55.65625 L 100.679688 57.804688 L 103.363281 48.597656 L 103.480469 48.480469 C 103.570312 48.382812 105.765625 46.117188 108.097656 45.734375 C 110.644531 45.316406 113.136719 46.835938 114.476562 48.523438 C 116.046875 50.503906 116.882812 54.847656 115.570312 58.699219 C 113.914062 63.554688 109.441406 65.941406 106.222656 67.3125 C 105.203125 67.746094 104.152344 68.101562 103.140625 68.449219 C 102.304688 68.734375 101.4375 69.027344 100.609375 69.359375 C 100.007812 69.601562 99.445312 69.910156 98.851562 70.234375 C 98.523438 70.414062 98.191406 70.589844 97.855469 70.761719 C 97.550781 70.914062 96.972656 71.050781 96.050781 71.261719 C 95.550781 71.378906 94.785156 71.554688 94.617188 71.636719 Z M 105.863281 52.648438 C 106.183594 52.648438 106.503906 52.683594 106.816406 52.753906 C 108.046875 53.023438 109.03125 53.816406 109.332031 54.777344 C 109.960938 56.792969 108.367188 59.484375 105.449219 61.324219 C 104.292969 62.050781 103.160156 62.449219 102.164062 62.800781 C 100.625 63.339844 99.734375 63.691406 99.347656 64.660156 C 98.625 66.484375 97.410156 68.230469 96.09375 69.886719 C 96.574219 69.777344 97.117188 69.644531 97.261719 69.574219 C 97.585938 69.410156 97.902344 69.238281 98.21875 69.066406 C 98.820312 68.738281 99.445312 68.398438 100.117188 68.128906 C 100.980469 67.78125 101.863281 67.480469 102.714844 67.191406 C 103.707031 66.851562 104.734375 66.503906 105.703125 66.089844 C 110.449219 64.066406 113.183594 61.585938 114.316406 58.269531 C 115.585938 54.542969 114.542969 50.746094 113.4375 49.351562 C 112.375 48.007812 110.3125 46.714844 108.3125 47.046875 C 106.675781 47.316406 104.992188 48.859375 104.550781 49.285156 L 103.363281 53.347656 C 104.167969 52.886719 105.019531 52.648438 105.863281 52.648438 Z M 105.863281 52.648438 "/>
<path style=" stroke:none;fill-rule:nonzero;fill:rgb(83.529412%,83.529412%,83.529412%);fill-opacity:1;" d="M 114.640625 52.652344 C 115.480469 53.707031 116.265625 56.941406 115.492188 58.699219 C 114.722656 60.453125 109.730469 65.957031 108.5625 66.160156 C 107.390625 66.367188 103.46875 68.285156 102.207031 68.746094 C 100.945312 69.203125 97.300781 70.207031 96.015625 70.570312 C 94.726562 70.9375 98.035156 64.171875 98.035156 64.171875 C 98.683594 63.40625 101.351562 62.578125 102.34375 62.433594 C 104.824219 62.0625 106.886719 59.4375 108.808594 57.816406 C 108.808594 57.816406 110.453125 57.484375 111.640625 56.707031 C 114.125 55.078125 114.640625 52.652344 114.640625 52.652344 Z M 114.640625 52.652344 "/>
<path style=" stroke:none;fill-rule:nonzero;fill:rgb(25.490196%,14.509804%,10.980392%);fill-opacity:1;" d="M 74.363281 84.625 C 64.363281 84.625 53.6875 81.484375 49.777344 73.949219 C 49.667969 73.742188 49.75 73.492188 49.957031 73.382812 C 50.164062 73.273438 50.414062 73.355469 50.523438 73.5625 C 54.757812 81.71875 67.429688 84.496094 78.105469 83.632812 C 78.332031 83.617188 78.539062 83.785156 78.558594 84.015625 C 78.574219 84.246094 78.40625 84.449219 78.175781 84.46875 C 76.925781 84.574219 75.652344 84.625 74.363281 84.625 Z M 74.363281 84.625 "/>
<path style=" stroke:none;fill-rule:nonzero;fill:rgb(25.490196%,14.509804%,10.980392%);fill-opacity:1;" d="M 81.847656 83.933594 C 81.667969 83.933594 81.503906 83.820312 81.445312 83.640625 C 81.378906 83.417969 81.496094 83.183594 81.71875 83.113281 C 81.777344 83.09375 87.578125 81.214844 91.253906 77.222656 C 91.410156 77.050781 91.675781 77.039062 91.847656 77.199219 C 92.019531 77.355469 92.027344 77.621094 91.871094 77.792969 C 88.039062 81.949219 82.222656 83.835938 81.976562 83.914062 C 81.929688 83.929688 81.886719 83.933594 81.847656 83.933594 Z M 81.847656 83.933594 "/>
<path style=" stroke:none;fill-rule:nonzero;fill:rgb(39.607843%,32.54902%,31.372549%);fill-opacity:1;" d="M 94.617188 71.636719 C 94.621094 71.632812 94.683594 71.605469 94.753906 71.523438 L 93.730469 70.667969 C 95.457031 68.613281 97.21875 66.417969 98.109375 64.171875 C 98.734375 62.59375 100.183594 62.085938 101.722656 61.546875 C 102.652344 61.222656 103.707031 60.851562 104.734375 60.199219 C 107.296875 58.585938 108.433594 56.378906 108.058594 55.179688 C 107.929688 54.769531 107.398438 54.246094 106.53125 54.054688 C 105.226562 53.769531 103.804688 54.351562 102.621094 55.65625 L 100.679688 57.804688 L 103.363281 48.597656 L 103.480469 48.480469 C 103.570312 48.382812 105.765625 46.117188 108.097656 45.734375 C 110.644531 45.316406 113.136719 46.835938 114.476562 48.523438 C 116.046875 50.503906 116.882812 54.847656 115.570312 58.699219 C 113.914062 63.554688 109.441406 65.941406 106.222656 67.3125 C 105.203125 67.746094 104.152344 68.101562 103.140625 68.449219 C 102.304688 68.734375 101.4375 69.027344 100.609375 69.359375 C 100.007812 69.601562 99.445312 69.910156 98.851562 70.234375 C 98.523438 70.414062 98.191406 70.589844 97.855469 70.761719 C 97.550781 70.914062 96.972656 71.050781 96.050781 71.261719 C 95.550781 71.378906 94.785156 71.554688 94.617188 71.636719 Z M 105.863281 52.648438 C 106.183594 52.648438 106.503906 52.683594 106.816406 52.753906 C 108.046875 53.023438 109.03125 53.816406 109.332031 54.777344 C 109.960938 56.792969 108.367188 59.484375 105.449219 61.324219 C 104.292969 62.050781 103.160156 62.449219 102.164062 62.800781 C 100.625 63.339844 99.734375 63.691406 99.347656 64.660156 C 98.625 66.484375 97.410156 68.230469 96.09375 69.886719 C 96.574219 69.777344 97.117188 69.644531 97.261719 69.574219 C 97.585938 69.410156 97.902344 69.238281 98.21875 69.066406 C 98.820312 68.738281 99.445312 68.398438 100.117188 68.128906 C 100.980469 67.78125 101.863281 67.480469 102.714844 67.191406 C 103.707031 66.851562 104.734375 66.503906 105.703125 66.089844 C 110.449219 64.066406 113.183594 61.585938 114.316406 58.269531 C 115.585938 54.542969 114.542969 50.746094 113.4375 49.351562 C 112.375 48.007812 110.3125 46.714844 108.3125 47.046875 C 106.675781 47.316406 104.992188 48.859375 104.550781 49.285156 L 103.363281 53.347656 C 104.167969 52.886719 105.019531 52.648438 105.863281 52.648438 Z M 105.863281 52.648438 "/>
<path style=" stroke:none;fill-rule:nonzero;fill:rgb(52.941176%,35.294118%,30.588235%);fill-opacity:1;" d="M 104.761719 47.488281 C 104.722656 47.605469 104.683594 47.71875 104.644531 47.828125 C 104.824219 46.796875 104.65625 46.976562 104.644531 46.167969 C 104.558594 40.664062 54.703125 10.007812 39.507812 49.855469 C 39.425781 49.648438 39.355469 49.4375 39.289062 49.222656 C 36.671875 40.855469 42.703125 31.65625 48.746094 26.414062 C 62.019531 14.902344 83.964844 15.671875 97.097656 26.992188 C 103.050781 32.128906 107.332031 39.519531 104.761719 47.488281 Z M 104.761719 47.488281 "/>
<path style=" stroke:none;fill-rule:nonzero;fill:rgb(39.607843%,32.156863%,30.588235%);fill-opacity:1;" d="M 39.503906 51.039062 L 39.109375 50.007812 C 39.027344 49.789062 38.953125 49.570312 38.886719 49.351562 C 36.175781 40.675781 42.355469 31.402344 48.472656 26.097656 C 54.90625 20.515625 63.613281 17.539062 72.980469 17.722656 C 82.082031 17.894531 90.972656 21.160156 97.371094 26.671875 C 104.605469 32.910156 107.441406 40.546875 105.160156 47.617188 L 105.160156 47.621094 C 105.121094 47.738281 105.082031 47.855469 105.035156 47.976562 L 104.230469 47.757812 C 104.332031 47.164062 104.3125 47.039062 104.28125 46.828125 C 104.257812 46.679688 104.230469 46.496094 104.226562 46.171875 C 104.1875 43.75 90.554688 33.601562 74.78125 30.824219 C 62.992188 28.753906 47.375 30.394531 39.898438 50.007812 Z M 72.265625 18.613281 C 63.71875 18.613281 55.269531 21.3125 49.019531 26.730469 C 42.757812 32.160156 37.484375 40.964844 39.546875 48.613281 C 47.386719 29.503906 63.050781 27.910156 74.925781 30 C 89.347656 32.539062 103.015625 41.425781 104.855469 45.378906 C 105.957031 39.214844 103.105469 32.730469 96.820312 27.308594 C 90.109375 21.523438 81.136719 18.613281 72.265625 18.613281 Z M 72.265625 18.613281 "/>
<path style=" stroke:none;fill-rule:nonzero;fill:rgb(25.490196%,14.509804%,10.980392%);fill-opacity:1;" d="M 104.644531 46.058594 C 104.65625 46.867188 104.824219 46.796875 104.644531 47.832031 C 102.574219 53.871094 97.339844 59.179688 91.5625 61.773438 C 83.679688 65.3125 74.332031 67.039062 66.628906 65.796875 C 55.917969 64.0625 43.046875 59.707031 39.503906 49.859375 C 54.699219 10.007812 104.554688 40.558594 104.644531 46.058594 Z M 104.644531 46.058594 "/>
<path style=" stroke:none;fill-rule:nonzero;fill:rgb(39.607843%,32.156863%,30.588235%);fill-opacity:1;" d="M 71.859375 66.613281 C 70.015625 66.613281 68.238281 66.480469 66.5625 66.210938 C 57.988281 64.820312 43.023438 60.871094 39.109375 50.003906 L 39.054688 49.855469 L 39.109375 49.710938 C 46.804688 29.527344 62.878906 27.835938 75.007812 29.96875 C 90.441406 32.683594 105.003906 42.667969 105.058594 46.054688 C 105.058594 46.316406 105.082031 46.472656 105.101562 46.621094 C 105.140625 46.921875 105.175781 47.175781 105.050781 47.902344 L 105.035156 47.96875 C 103.015625 53.863281 97.789062 59.4375 91.730469 62.152344 C 85.285156 65.050781 78.1875 66.613281 71.859375 66.613281 Z M 39.953125 49.863281 C 43.804688 60.214844 58.34375 64.027344 66.695312 65.378906 C 73.976562 66.554688 83.210938 65.0625 91.390625 61.386719 C 97.238281 58.761719 102.277344 53.402344 104.234375 47.722656 C 104.335938 47.148438 104.308594 46.984375 104.277344 46.734375 C 104.257812 46.574219 104.230469 46.378906 104.222656 46.066406 C 104.183594 43.65625 90.597656 33.5625 74.867188 30.796875 C 63.082031 28.71875 47.46875 30.355469 39.953125 49.863281 Z M 39.953125 49.863281 "/>
<path style=" stroke:none;fill-rule:nonzero;fill:rgb(84.313725%,70.980392%,67.45098%);fill-opacity:1;" d="M 47.0625 59.296875 C 48.476562 60.066406 48.296875 56.097656 51.613281 52.285156 C 58.023438 44.929688 70.492188 41.703125 79.503906 46.234375 C 85.0625 49.03125 92.710938 51.628906 94.007812 58.488281 C 95.253906 65.078125 86.851562 67.714844 74.832031 68.023438 C 62.816406 68.328125 47.058594 59.296875 47.0625 59.296875 Z M 47.0625 59.296875 "/>
<path style=" stroke:none;fill-rule:nonzero;fill:rgb(100%,100%,100%);fill-opacity:1;" d="M 74.222656 68.660156 C 69.265625 68.660156 63.210938 67.214844 56.203125 64.359375 C 53.375 63.203125 50.957031 62.039062 49.429688 61.269531 C 47.953125 60.523438 47.234375 60.136719 46.875 59.910156 C 46.839844 59.890625 46.800781 59.875 46.761719 59.851562 L 46.765625 59.839844 C 46.535156 59.683594 46.507812 59.617188 46.476562 59.535156 L 45.828125 57.914062 L 47.359375 58.746094 C 47.535156 58.546875 47.800781 57.875 48.019531 57.328125 C 48.566406 55.957031 49.390625 53.886719 51.140625 51.875 C 58.023438 43.972656 70.875 41.191406 79.789062 45.679688 C 80.5625 46.066406 81.367188 46.449219 82.222656 46.851562 C 87.484375 49.34375 93.457031 52.167969 94.628906 58.375 C 94.996094 60.335938 94.597656 62.058594 93.433594 63.5 C 90.871094 66.675781 84.617188 68.40625 74.851562 68.65625 C 74.644531 68.65625 74.433594 68.660156 74.222656 68.660156 Z M 48.472656 59.347656 C 52.222656 61.347656 64.894531 67.640625 74.816406 67.390625 C 84.066406 67.15625 90.164062 65.539062 92.449219 62.707031 C 93.382812 61.546875 93.691406 60.207031 93.390625 58.605469 C 92.335938 53.027344 86.675781 50.347656 81.679688 47.984375 C 80.820312 47.578125 80.011719 47.191406 79.222656 46.796875 C 70.789062 42.554688 58.621094 45.199219 52.09375 52.699219 C 50.484375 54.542969 49.738281 56.417969 49.191406 57.785156 C 48.933594 58.441406 48.722656 58.972656 48.472656 59.347656 Z M 48.472656 59.347656 "/>
<path style=" stroke:none;fill-rule:nonzero;fill:rgb(90.980392%,91.372549%,91.372549%);fill-opacity:1;" d="M 104.644531 47.828125 C 102.953125 57.816406 99.121094 67.261719 91.347656 73.984375 C 85.394531 79.132812 79.621094 81.550781 71.683594 81.394531 C 54.605469 81.054688 45.148438 64.285156 39.277344 50.460938 C 39.355469 50.257812 39.425781 50.058594 39.507812 49.859375 C 43.054688 59.707031 55.921875 64.058594 66.628906 65.796875 C 74.335938 67.039062 83.683594 65.3125 91.566406 61.773438 C 97.339844 59.179688 102.570312 53.867188 104.644531 47.828125 Z M 104.644531 47.828125 "/>
<path style=" stroke:none;fill-rule:nonzero;fill:rgb(39.607843%,32.156863%,30.588235%);fill-opacity:1;" d="M 104.246094 47.695312 C 102.292969 53.386719 97.25 58.761719 91.390625 61.386719 C 83.207031 65.0625 73.976562 66.550781 66.691406 65.378906 C 58.304688 64.019531 43.664062 60.175781 39.898438 49.714844 L 39.527344 48.679688 L 39.113281 49.699219 C 39.09375 49.746094 39.078125 49.789062 39.0625 49.835938 C 39.054688 49.84375 39.054688 49.859375 39.046875 49.871094 C 39.316406 50.746094 39.589844 51.625 39.859375 52.496094 C 40.300781 53.9375 40.957031 55.285156 41.613281 56.632812 C 42.191406 57.820312 42.792969 58.996094 43.417969 60.160156 C 44.058594 61.339844 44.726562 62.511719 45.429688 63.660156 C 46.136719 64.816406 46.878906 65.953125 47.65625 67.0625 C 48.4375 68.167969 49.253906 69.246094 50.117188 70.289062 C 50.976562 71.320312 51.875 72.320312 52.828125 73.265625 C 53.769531 74.203125 54.757812 75.09375 55.796875 75.917969 C 56.828125 76.738281 57.910156 77.492188 59.046875 78.171875 C 60.179688 78.847656 61.363281 79.445312 62.585938 79.945312 C 63.835938 80.457031 65.121094 80.871094 66.433594 81.175781 C 67.800781 81.492188 69.199219 81.691406 70.597656 81.773438 C 70.957031 81.796875 71.3125 81.808594 71.671875 81.816406 C 71.917969 81.820312 72.15625 81.820312 72.402344 81.820312 C 79.765625 81.820312 85.554688 79.550781 91.617188 74.308594 C 98.589844 68.28125 103.109375 59.394531 105.054688 47.902344 Z M 71.695312 80.972656 C 56.210938 80.664062 47.105469 66.550781 41.414062 54.25 C 47.171875 61.941406 59.21875 65.015625 66.566406 66.207031 C 74 67.402344 83.414062 65.890625 91.738281 62.148438 C 96.621094 59.960938 100.960938 55.917969 103.519531 51.34375 C 101.332031 60.910156 97.152344 68.410156 91.070312 73.664062 C 84.980469 78.933594 79.1875 81.125 71.695312 80.972656 Z M 71.695312 80.972656 "/>
<path style=" stroke:none;fill-rule:nonzero;fill:rgb(69.411765%,77.647059%,40%);fill-opacity:1;" d="M 74.015625 41.335938 C 74.015625 41.335938 71.136719 42.96875 70.664062 44.125 C 70.195312 45.28125 68.914062 48.191406 68.976562 48.597656 C 69.039062 49.003906 67.324219 49.191406 67.046875 49.222656 C 66.769531 49.253906 66.429688 49.992188 66.511719 49.96875 C 66.589844 49.945312 68.089844 50.15625 68.089844 50.15625 L 67.929688 51.203125 C 67.929688 51.203125 68.0625 51.796875 68.140625 51.820312 C 68.222656 51.847656 69.027344 50.746094 69.027344 50.746094 C 69.027344 50.746094 69.347656 50.726562 69.445312 50.839844 C 69.550781 50.949219 72.316406 54.339844 72.457031 54.460938 C 72.59375 54.585938 75.425781 55.855469 76.71875 56.054688 C 78.015625 56.253906 79.15625 56.9375 79.453125 57.285156 C 79.746094 57.632812 80.28125 57.703125 80.179688 57.941406 C 80.074219 58.179688 79.773438 59.269531 79.746094 59.539062 C 79.71875 59.804688 80.140625 59.871094 80.449219 59.539062 C 80.753906 59.203125 81.328125 59.738281 81.167969 59.992188 C 81.007812 60.25 81.601562 59.761719 81.703125 59.640625 C 81.808594 59.523438 82.503906 59.292969 82.730469 59.328125 C 82.960938 59.363281 85.394531 59.648438 85.875 59.539062 C 86.355469 59.425781 88.621094 58.71875 89.953125 56.074219 C 91.277344 53.425781 91.816406 51.277344 91.90625 50.878906 C 92 50.476562 92.105469 48.839844 91.703125 48.222656 C 91.308594 47.609375 75.839844 40.453125 74.015625 41.335938 Z M 74.015625 41.335938 "/>
<path style=" stroke:none;fill-rule:nonzero;fill:rgb(69.411765%,77.647059%,40%);fill-opacity:1;" d="M 85.570312 31.058594 C 85.570312 31.058594 85.640625 29.769531 84.949219 28.84375 C 84.261719 27.921875 83.785156 27.109375 82.679688 27.199219 C 81.574219 27.285156 80.164062 27.96875 79.617188 28.800781 C 79.070312 29.632812 78.46875 30.371094 77.421875 30.839844 C 76.371094 31.308594 75.226562 32.023438 74.773438 32.382812 C 74.316406 32.742188 72.695312 34.578125 72.578125 34.914062 C 72.460938 35.25 72.402344 37.105469 72.542969 37.515625 C 72.683594 37.925781 74.269531 42.5625 74.4375 42.921875 C 74.601562 43.28125 75.585938 44.890625 76.5 45.410156 C 77.414062 45.929688 81.730469 47.453125 82.503906 47.5 C 83.273438 47.546875 87.710938 48.777344 88.226562 48.59375 C 88.742188 48.410156 93.679688 48.808594 94.417969 48.613281 C 95.160156 48.417969 96.097656 48.460938 96.476562 47.214844 C 96.859375 45.96875 97.234375 44.980469 97.6875 43.71875 C 98.144531 42.460938 98.757812 41.351562 99.113281 39.914062 C 99.472656 38.476562 99.324219 36.699219 98.761719 35.933594 C 98.199219 35.167969 97.503906 34.632812 96.351562 34.726562 C 95.199219 34.816406 94.042969 34.523438 93.695312 34.726562 C 93.347656 34.925781 92.355469 35.089844 92.355469 35.089844 C 92.355469 35.089844 90.910156 32.539062 89.890625 32.382812 C 88.863281 32.226562 85.570312 31.058594 85.570312 31.058594 Z M 85.570312 31.058594 "/>
<path style=" stroke:none;fill-rule:nonzero;fill:rgb(100%,100%,100%);fill-opacity:1;" d="M 73.453125 39.164062 C 73.421875 39.039062 75.328125 38.492188 75.488281 38.441406 C 76.609375 38.089844 77.746094 37.738281 78.9375 37.765625 C 80.863281 37.816406 82.6875 38.679688 84.324219 39.621094 C 86.679688 40.972656 88.738281 42.75 90.484375 44.824219 C 91.164062 45.632812 92.132812 46.828125 91.996094 47.957031 C 91.921875 48.574219 87.417969 47.957031 86.851562 47.957031 C 86.289062 47.957031 81.640625 47.492188 79.878906 46.800781 C 78.113281 46.105469 76.132812 45.445312 75.109375 43.621094 C 74.097656 41.792969 73.453125 39.164062 73.453125 39.164062 Z M 73.453125 39.164062 "/>
<path style=" stroke:none;fill-rule:nonzero;fill:rgb(100%,100%,100%);fill-opacity:1;" d="M 71.308594 52.660156 C 71.308594 52.660156 71.171875 50.101562 72.8125 48.441406 C 73.207031 48.042969 76.171875 45.9375 77.695312 46.066406 C 79.214844 46.191406 83.183594 47.238281 83.800781 47.65625 C 84.414062 48.078125 85.660156 48.730469 85.621094 49.53125 C 85.582031 50.332031 83.328125 53.710938 82.703125 54.675781 C 82.078125 55.640625 80.609375 57.652344 79.796875 57.226562 C 78.984375 56.804688 75.550781 55.601562 74.886719 55.417969 C 74.230469 55.234375 71.671875 53.949219 71.308594 52.660156 Z M 71.308594 52.660156 "/>
<path style=" stroke:none;fill-rule:nonzero;fill:rgb(100%,100%,100%);fill-opacity:1;" d="M 79.90625 31.429688 C 79.894531 31.375 79.882812 31.316406 79.882812 31.257812 C 79.828125 29.75 81.648438 28.730469 82.90625 29.648438 C 83.496094 30.078125 83.792969 31.480469 83.421875 32.09375 C 83.015625 32.761719 81.882812 32.824219 81.230469 32.578125 C 80.726562 32.386719 80.039062 32.011719 79.90625 31.429688 Z M 79.90625 31.429688 "/>
<path style=" stroke:none;fill-rule:nonzero;fill:rgb(100%,100%,100%);fill-opacity:1;" d="M 91.976562 37.550781 C 92.382812 35.761719 95.050781 35.871094 96.328125 36.464844 C 97.507812 37.015625 97.738281 38.246094 97.3125 39.394531 C 96.75 40.910156 95.371094 40.972656 94.027344 40.5 C 92.714844 40.039062 91.636719 39.050781 91.976562 37.550781 Z M 91.976562 37.550781 "/>
<path style=" stroke:none;fill-rule:nonzero;fill:rgb(31.764706%,37.254902%,24.313725%);fill-opacity:1;" d="M 82.621094 31.53125 C 81.574219 31.53125 80.578125 31.09375 80.535156 31.074219 C 80.410156 31.015625 80.351562 30.867188 80.410156 30.742188 C 80.464844 30.613281 80.617188 30.558594 80.742188 30.613281 C 80.753906 30.621094 81.820312 31.089844 82.816406 31.027344 C 82.945312 31.015625 83.074219 31.121094 83.082031 31.261719 C 83.089844 31.398438 82.984375 31.519531 82.847656 31.527344 C 82.769531 31.53125 82.695312 31.53125 82.621094 31.53125 Z M 82.621094 31.53125 "/>
<path style=" stroke:none;fill-rule:nonzero;fill:rgb(31.764706%,37.254902%,24.313725%);fill-opacity:1;" d="M 96.65625 40.015625 C 96.648438 40.015625 96.640625 40.015625 96.632812 40.015625 C 96.535156 40.011719 94.230469 39.820312 92.828125 37.316406 C 92.738281 37.15625 92.796875 36.949219 92.957031 36.859375 C 93.121094 36.769531 93.324219 36.828125 93.414062 36.988281 C 94.632812 39.167969 96.597656 39.34375 96.679688 39.347656 C 96.863281 39.363281 97.003906 39.523438 96.988281 39.707031 C 96.976562 39.882812 96.832031 40.015625 96.65625 40.015625 Z M 96.65625 40.015625 "/>
<path style=" stroke:none;fill-rule:nonzero;fill:rgb(86.666667%,54.509804%,71.764706%);fill-opacity:1;" d="M 92.050781 45.066406 C 91.386719 44.734375 90.851562 44.179688 90.289062 43.699219 C 89.992188 43.449219 89.007812 42.289062 89.8125 42.007812 C 90.574219 41.738281 91.710938 42.0625 92.382812 42.4375 C 93.46875 43.039062 94.375 44.1875 94.070312 44.851562 C 93.847656 45.347656 93.09375 45.390625 92.707031 45.273438 C 92.554688 45.226562 92.191406 45.136719 92.050781 45.066406 Z M 92.050781 45.066406 "/>
<path style=" stroke:none;fill-rule:nonzero;fill:rgb(86.666667%,54.509804%,71.764706%);fill-opacity:1;" d="M 77.183594 37.09375 C 77.183594 37.09375 75.023438 36.90625 74.5625 35.917969 C 74.101562 34.933594 74.347656 34.253906 75.519531 34.222656 C 76.691406 34.191406 77.988281 35.300781 78.203125 35.949219 C 78.421875 36.601562 78.09375 37.25 77.183594 37.09375 Z M 77.183594 37.09375 "/>
<path style=" stroke:none;fill-rule:nonzero;fill:rgb(69.411765%,77.647059%,40%);fill-opacity:1;" d="M 76.089844 45.792969 C 76.21875 46.8125 76.347656 47.832031 76.476562 48.851562 C 76.515625 49.152344 76.554688 49.457031 76.675781 49.734375 C 76.792969 49.992188 76.976562 50.210938 77.15625 50.425781 C 77.488281 50.824219 77.824219 51.222656 78.160156 51.621094 C 78.226562 51.703125 78.296875 51.808594 78.246094 51.898438 C 78.199219 51.976562 78.09375 51.988281 78.003906 51.984375 C 77.71875 51.96875 77.4375 51.878906 77.195312 51.730469 C 77.21875 52.144531 77.242188 52.550781 77.265625 52.960938 C 77.269531 53.085938 77.25 53.242188 77.128906 53.269531 C 77.039062 53.285156 76.960938 53.207031 76.910156 53.132812 C 76.675781 52.792969 76.578125 52.371094 76.339844 52.035156 C 75.96875 51.523438 75.328125 51.292969 74.804688 50.941406 C 73.566406 50.105469 72.980469 48.5625 72.8125 47.078125 "/>
<path style=" stroke:none;fill-rule:nonzero;fill:rgb(31.764706%,37.254902%,24.313725%);fill-opacity:1;" d="M 75.5625 45.792969 C 75.652344 46.472656 75.734375 47.152344 75.820312 47.832031 C 75.898438 48.421875 75.914062 49.058594 76.082031 49.632812 C 76.246094 50.179688 76.609375 50.589844 76.96875 51.019531 C 77.074219 51.144531 77.179688 51.269531 77.285156 51.398438 C 77.375 51.503906 77.488281 51.707031 77.605469 51.78125 C 77.695312 51.957031 77.773438 51.925781 77.851562 51.679688 C 78.058594 51.519531 78.078125 51.445312 77.902344 51.453125 C 77.792969 51.378906 77.585938 51.355469 77.460938 51.285156 C 77.128906 51.097656 76.648438 51.328125 76.671875 51.738281 C 76.683594 51.964844 76.695312 52.195312 76.710938 52.421875 C 76.71875 52.570312 76.675781 52.882812 76.738281 53.007812 C 76.726562 53.140625 76.820312 53.109375 77.019531 52.90625 C 77.292969 52.890625 77.363281 52.804688 77.238281 52.660156 C 77.21875 52.585938 77.164062 52.507812 77.128906 52.4375 C 77.050781 52.269531 76.984375 52.09375 76.890625 51.933594 C 76.507812 51.269531 75.835938 50.96875 75.210938 50.582031 C 74.023438 49.847656 73.496094 48.414062 73.335938 47.085938 C 73.300781 46.800781 73.117188 46.5625 72.808594 46.558594 C 72.550781 46.558594 72.253906 46.804688 72.285156 47.085938 C 72.511719 48.9375 73.246094 50.671875 74.921875 51.632812 C 75.292969 51.847656 75.707031 52.039062 75.949219 52.410156 C 76.214844 52.8125 76.289062 53.371094 76.703125 53.664062 C 77.089844 53.9375 77.617188 53.75 77.746094 53.296875 C 77.882812 52.824219 77.746094 52.222656 77.722656 51.738281 C 77.457031 51.886719 77.191406 52.039062 76.933594 52.191406 C 77.40625 52.457031 78.433594 52.808594 78.726562 52.105469 C 78.882812 51.730469 78.671875 51.425781 78.4375 51.144531 C 78.183594 50.835938 77.921875 50.527344 77.664062 50.222656 C 77.453125 49.972656 77.222656 49.726562 77.113281 49.414062 C 76.984375 49.054688 76.972656 48.648438 76.921875 48.269531 C 76.816406 47.445312 76.714844 46.617188 76.609375 45.792969 C 76.574219 45.507812 76.394531 45.269531 76.085938 45.265625 C 75.835938 45.265625 75.53125 45.511719 75.5625 45.792969 Z M 75.5625 45.792969 "/>
<path style=" stroke:none;fill-rule:nonzero;fill:rgb(69.411765%,77.647059%,40%);fill-opacity:1;" d="M 85.859375 49.964844 C 85.972656 50.644531 85.367188 51.230469 84.757812 51.550781 C 83.5 52.207031 81.957031 52.292969 80.632812 51.785156 C 80.566406 51.761719 80.492188 51.734375 80.433594 51.765625 C 80.386719 51.785156 80.359375 51.835938 80.335938 51.882812 C 80.203125 52.175781 80.1875 52.523438 80.296875 52.828125 C 80.375 53.054688 80.527344 53.28125 80.457031 53.515625 C 80.34375 53.914062 79.6875 53.972656 79.617188 54.382812 C 79.804688 54.550781 80.089844 54.382812 80.3125 54.265625 C 80.761719 54.039062 81.289062 54.058594 81.792969 54.050781 C 83.269531 54.03125 84.742188 53.746094 86.121094 53.21875 "/>
<path style=" stroke:none;fill-rule:nonzero;fill:rgb(31.764706%,37.254902%,24.313725%);fill-opacity:1;" d="M 85.335938 49.964844 C 85.425781 50.738281 84.46875 51.160156 83.863281 51.359375 C 83.035156 51.628906 82.132812 51.667969 81.289062 51.445312 C 80.859375 51.335938 80.382812 51.050781 80.003906 51.445312 C 79.691406 51.769531 79.660156 52.34375 79.734375 52.761719 C 79.761719 52.902344 79.972656 53.238281 79.941406 53.359375 C 79.933594 53.378906 79.871094 53.421875 79.816406 53.457031 C 79.5 53.660156 79.210938 53.863281 79.109375 54.246094 C 79.046875 54.480469 79.15625 54.707031 79.351562 54.839844 C 79.917969 55.210938 80.398438 54.703125 80.953125 54.617188 C 81.5 54.53125 82.074219 54.589844 82.625 54.542969 C 83.871094 54.445312 85.09375 54.175781 86.257812 53.730469 C 86.523438 53.632812 86.707031 53.375 86.625 53.085938 C 86.554688 52.828125 86.246094 52.617188 85.980469 52.71875 C 84.941406 53.113281 83.851562 53.386719 82.746094 53.484375 C 82.210938 53.53125 81.671875 53.511719 81.136719 53.550781 C 80.878906 53.566406 80.617188 53.601562 80.367188 53.683594 C 80.257812 53.722656 80.152344 53.773438 80.046875 53.824219 C 79.984375 53.851562 79.929688 53.882812 79.867188 53.914062 C 79.785156 53.933594 79.789062 53.941406 79.882812 53.9375 C 79.960938 54.136719 80.042969 54.332031 80.121094 54.53125 C 80.136719 54.46875 80.351562 54.367188 80.4375 54.308594 C 80.652344 54.160156 80.847656 53.980469 80.9375 53.726562 C 81.035156 53.445312 80.988281 53.164062 80.878906 52.890625 C 80.800781 52.707031 80.640625 52.28125 80.800781 52.144531 C 80.675781 52.195312 80.554688 52.246094 80.425781 52.296875 C 80.554688 52.285156 80.730469 52.382812 80.851562 52.417969 C 80.992188 52.460938 81.132812 52.492188 81.273438 52.523438 C 81.585938 52.585938 81.90625 52.625 82.222656 52.636719 C 82.867188 52.660156 83.527344 52.570312 84.136719 52.375 C 85.171875 52.039062 86.527344 51.246094 86.382812 49.96875 C 86.347656 49.6875 86.164062 49.441406 85.855469 49.441406 C 85.601562 49.441406 85.300781 49.683594 85.335938 49.964844 Z M 85.335938 49.964844 "/>
<path style=" stroke:none;fill-rule:nonzero;fill:rgb(31.764706%,37.254902%,24.313725%);fill-opacity:1;" d="M 91.726562 35.921875 C 92.921875 36.070312 94.011719 35.226562 95.199219 35.121094 C 96.304688 35.023438 97.441406 35.308594 98.230469 36.125 C 100.011719 37.972656 98.183594 40.546875 97.414062 42.414062 C 96.949219 43.546875 96.84375 44.753906 96.484375 45.914062 C 96.21875 46.785156 95.660156 47.792969 94.699219 48.023438 C 94.171875 48.148438 93.605469 48.007812 93.074219 47.980469 C 92.46875 47.953125 91.863281 47.984375 91.261719 47.992188 C 89.976562 48.003906 88.695312 47.910156 87.421875 47.746094 C 85.027344 47.4375 82.625 46.941406 80.28125 46.359375 C 78.449219 45.902344 76.429688 45.21875 75.355469 43.546875 C 74.765625 42.628906 74.511719 41.550781 74.203125 40.511719 C 73.886719 39.429688 73.371094 38.425781 73.042969 37.351562 C 72.71875 36.277344 72.839844 35.285156 73.484375 34.367188 C 74.0625 33.542969 74.902344 32.90625 75.730469 32.351562 C 76.800781 31.636719 77.980469 31.070312 79.039062 30.335938 C 79.527344 29.992188 79.785156 29.546875 80.085938 29.046875 C 80.386719 28.546875 80.8125 28.152344 81.355469 27.917969 C 82.367188 27.476562 83.542969 27.757812 84.222656 28.644531 C 84.648438 29.195312 84.640625 29.761719 84.703125 30.425781 C 84.761719 31.09375 85.8125 31.101562 85.753906 30.425781 C 85.691406 29.777344 85.6875 29.144531 85.390625 28.546875 C 84.933594 27.613281 83.992188 26.902344 82.96875 26.714844 C 81.898438 26.515625 80.800781 26.863281 79.972656 27.5625 C 79.5 27.960938 79.253906 28.453125 78.925781 28.960938 C 78.558594 29.527344 77.910156 29.78125 77.347656 30.109375 C 75.40625 31.246094 72.980469 32.554688 72.085938 34.753906 C 71.601562 35.941406 71.824219 37.171875 72.28125 38.332031 C 72.757812 39.539062 73.15625 40.734375 73.539062 41.976562 C 73.890625 43.101562 74.367188 44.179688 75.207031 45.03125 C 75.984375 45.820312 76.964844 46.351562 77.984375 46.753906 C 79.003906 47.152344 80.074219 47.410156 81.140625 47.640625 C 82.582031 47.953125 84.023438 48.261719 85.480469 48.511719 C 86.921875 48.757812 88.378906 48.949219 89.84375 49.019531 C 91.199219 49.085938 92.550781 49.003906 93.90625 49.109375 C 95.089844 49.199219 96.058594 48.703125 96.757812 47.75 C 97.507812 46.71875 97.679688 45.445312 97.953125 44.230469 C 98.542969 41.617188 101.230469 38.683594 99.445312 35.972656 C 98.746094 34.914062 97.578125 34.265625 96.332031 34.105469 C 95.597656 34.007812 94.847656 34.074219 94.132812 34.253906 C 93.34375 34.453125 92.566406 34.976562 91.730469 34.875 C 91.054688 34.789062 91.058594 35.839844 91.726562 35.921875 Z M 91.726562 35.921875 "/>
<path style=" stroke:none;fill-rule:nonzero;fill:rgb(31.764706%,37.254902%,24.313725%);fill-opacity:1;" d="M 73.546875 40.726562 C 71.308594 42.121094 69.636719 44.375 68.996094 46.945312 C 68.917969 47.253906 68.859375 47.566406 68.8125 47.878906 C 68.777344 48.117188 68.824219 48.484375 68.589844 48.585938 C 68.335938 48.699219 67.816406 48.605469 67.539062 48.617188 C 67.15625 48.636719 66.78125 48.679688 66.40625 48.734375 C 64.929688 48.957031 63.511719 49.484375 62.242188 50.261719 C 62.429688 50.585938 62.617188 50.910156 62.8125 51.238281 C 63.964844 50.496094 65.222656 50.035156 66.574219 49.84375 C 66.363281 49.566406 66.148438 49.289062 65.941406 49.015625 C 65.097656 50.179688 64.25 51.339844 63.40625 52.503906 C 63.050781 52.996094 63.722656 53.507812 64.179688 53.273438 C 64.867188 52.921875 65.328125 52.34375 65.800781 51.753906 C 66.265625 51.167969 66.8125 50.488281 67.636719 50.539062 C 67.445312 50.347656 67.261719 50.164062 67.070312 49.972656 C 67.292969 51.769531 67.296875 53.59375 67.039062 55.386719 C 66.9375 56.089844 68.011719 56.40625 68.125 55.6875 C 68.207031 55.148438 68.335938 54.648438 68.515625 54.136719 C 68.925781 52.957031 69.222656 51.738281 69.519531 50.527344 C 69.203125 50.613281 68.890625 50.695312 68.578125 50.777344 C 69.671875 51.730469 70.328125 53.042969 71.277344 54.121094 C 72.195312 55.167969 73.382812 55.769531 74.722656 56.109375 C 76.046875 56.445312 77.449219 56.554688 78.71875 57.082031 C 78.902344 57.15625 79.578125 57.402344 79.660156 57.601562 C 79.765625 57.859375 79.351562 58.449219 79.246094 58.691406 C 78.863281 59.5625 78.480469 60.433594 78.097656 61.300781 C 77.855469 61.84375 78.511719 62.496094 78.980469 61.984375 C 79.757812 61.136719 80.535156 60.289062 81.3125 59.441406 C 80.992188 59.308594 80.671875 59.175781 80.347656 59.042969 C 80.402344 60.246094 80.605469 61.429688 80.957031 62.578125 C 81.175781 63.277344 82.175781 62.984375 82.042969 62.277344 C 81.949219 61.773438 81.6875 59.929688 82.460938 59.875 C 82.816406 59.847656 83.214844 60 83.566406 60.058594 C 83.96875 60.121094 84.371094 60.171875 84.777344 60.183594 C 86.363281 60.222656 87.746094 59.632812 88.835938 58.480469 C 90.964844 56.226562 92.621094 52.988281 92.351562 49.824219 C 92.292969 49.105469 91.164062 49.101562 91.222656 49.824219 C 91.367188 51.511719 90.925781 53.144531 90.148438 54.636719 C 89.4375 56.003906 88.464844 57.601562 87.144531 58.457031 C 86.4375 58.921875 85.613281 59.074219 84.777344 59.054688 C 83.996094 59.035156 83.234375 58.738281 82.460938 58.746094 C 80.578125 58.773438 80.722656 61.28125 80.957031 62.578125 C 81.320312 62.476562 81.683594 62.375 82.042969 62.277344 C 81.71875 61.222656 81.523438 60.148438 81.472656 59.042969 C 81.453125 58.582031 80.859375 58.265625 80.511719 58.644531 C 79.734375 59.492188 78.957031 60.339844 78.179688 61.1875 C 78.472656 61.414062 78.769531 61.644531 79.066406 61.871094 C 79.476562 60.9375 79.886719 60.007812 80.296875 59.074219 C 80.597656 58.394531 81.125 57.578125 80.539062 56.902344 C 80.070312 56.359375 79.234375 56.054688 78.574219 55.835938 C 77.875 55.601562 77.140625 55.46875 76.414062 55.324219 C 74.90625 55.027344 73.390625 54.71875 72.285156 53.5625 C 71.21875 52.445312 70.546875 51.007812 69.371094 49.984375 C 69.066406 49.71875 68.535156 49.796875 68.429688 50.234375 C 68.132812 51.445312 67.835938 52.660156 67.425781 53.839844 C 67.246094 54.355469 67.117188 54.855469 67.035156 55.390625 C 67.398438 55.492188 67.761719 55.59375 68.121094 55.691406 C 68.394531 53.789062 68.429688 51.886719 68.191406 49.980469 C 68.152344 49.660156 67.964844 49.4375 67.628906 49.414062 C 66.753906 49.363281 65.996094 49.84375 65.414062 50.460938 C 64.820312 51.09375 64.402344 51.898438 63.605469 52.304688 C 63.863281 52.5625 64.117188 52.816406 64.378906 53.074219 C 65.21875 51.910156 66.066406 50.75 66.910156 49.585938 C 67.234375 49.136719 66.695312 48.699219 66.273438 48.757812 C 64.832031 48.964844 63.460938 49.480469 62.238281 50.265625 C 61.628906 50.65625 62.183594 51.617188 62.808594 51.238281 C 64.109375 50.449219 65.566406 49.929688 67.089844 49.78125 C 67.726562 49.722656 68.484375 49.855469 69.085938 49.609375 C 69.730469 49.34375 69.816406 48.800781 69.898438 48.1875 C 70.257812 45.53125 71.839844 43.117188 74.113281 41.703125 C 74.730469 41.320312 74.164062 40.34375 73.546875 40.726562 Z M 73.546875 40.726562 "/>
<path style=" stroke:none;fill-rule:nonzero;fill:rgb(31.764706%,37.254902%,24.313725%);fill-opacity:1;" d="M 92.171875 35.351562 C 91.675781 34.730469 91.183594 34.132812 90.644531 33.589844 C 90.238281 33.148438 89.90625 32.867188 89.335938 32.695312 C 87.722656 32.074219 86.121094 31.125 84.351562 31.121094 C 84.351562 31.121094 84.328125 31 84.328125 31 C 84.726562 30.875 85.144531 30.859375 85.554688 30.871094 C 87.589844 31.015625 89.847656 31.390625 91.339844 32.898438 C 91.929688 33.484375 92.457031 34.109375 92.941406 34.746094 C 92.9375 34.746094 92.171875 35.351562 92.171875 35.351562 Z M 92.171875 35.351562 "/>
<path style=" stroke:none;fill-rule:nonzero;fill:rgb(69.411765%,77.647059%,40%);fill-opacity:1;" d="M 80.550781 57.394531 C 80.550781 57.394531 81.222656 54.925781 82.375 54.820312 C 83.527344 54.710938 85.1875 55.113281 85.1875 55.113281 "/>
<path style=" stroke:none;fill-rule:nonzero;fill:rgb(31.764706%,37.254902%,24.313725%);fill-opacity:1;" d="M 80.550781 57.816406 C 80.515625 57.816406 80.476562 57.808594 80.4375 57.800781 C 80.214844 57.742188 80.082031 57.511719 80.144531 57.285156 C 80.222656 57.003906 80.933594 54.535156 82.335938 54.402344 C 83.542969 54.289062 85.21875 54.691406 85.285156 54.707031 C 85.511719 54.761719 85.648438 54.988281 85.597656 55.214844 C 85.542969 55.441406 85.3125 55.582031 85.089844 55.523438 C 85.074219 55.519531 83.480469 55.140625 82.414062 55.238281 C 81.820312 55.292969 81.203125 56.597656 80.953125 57.507812 C 80.902344 57.691406 80.734375 57.816406 80.550781 57.816406 Z M 80.550781 57.816406 "/>
<path style=" stroke:none;fill-rule:nonzero;fill:rgb(31.764706%,37.254902%,24.313725%);fill-opacity:1;" d="M 75.046875 39.523438 C 74.949219 39.523438 74.851562 39.464844 74.8125 39.367188 C 74.761719 39.238281 74.824219 39.089844 74.953125 39.039062 C 75.089844 38.984375 78.308594 37.707031 80.410156 38.171875 C 80.546875 38.203125 80.632812 38.335938 80.605469 38.472656 C 80.574219 38.605469 80.4375 38.695312 80.304688 38.664062 C 78.355469 38.234375 75.175781 39.496094 75.144531 39.507812 C 75.109375 39.519531 75.078125 39.523438 75.046875 39.523438 Z M 75.046875 39.523438 "/>
<path style=" stroke:none;fill-rule:nonzero;fill:rgb(31.764706%,37.254902%,24.313725%);fill-opacity:1;" d="M 90.488281 47.003906 C 90.382812 47.003906 90.289062 46.9375 90.253906 46.835938 C 88.738281 42.527344 81.492188 39.253906 81.421875 39.222656 C 81.292969 39.164062 81.238281 39.019531 81.289062 38.890625 C 81.347656 38.761719 81.496094 38.707031 81.625 38.761719 C 81.929688 38.894531 89.140625 42.152344 90.726562 46.667969 C 90.769531 46.800781 90.703125 46.945312 90.574219 46.988281 C 90.546875 46.996094 90.519531 47.003906 90.488281 47.003906 Z M 90.488281 47.003906 "/>
<path style=" stroke:none;fill-rule:nonzero;fill:rgb(83.529412%,83.529412%,83.529412%);fill-opacity:1;" d="M 74.34375 66.195312 C 74.34375 66.195312 79.359375 68.695312 78.464844 73.757812 C 77.570312 78.820312 76.996094 81.289062 74.34375 81.34375 C 71.683594 81.394531 82.816406 81.601562 90.972656 74.308594 C 102.101562 64.34375 102.753906 52.984375 104.355469 48.5 C 104.980469 46.753906 100.519531 59.191406 88.027344 63.21875 C 77.210938 66.703125 74.34375 66.195312 74.34375 66.195312 Z M 74.34375 66.195312 "/>
<path style=" stroke:none;fill-rule:nonzero;fill:rgb(39.607843%,32.156863%,30.588235%);fill-opacity:1;" d="M 72.40625 81.820312 C 72.164062 81.820312 71.921875 81.816406 71.679688 81.8125 C 54.015625 81.460938 44.773438 63.152344 39.160156 49.933594 L 39.09375 49.777344 L 39.214844 49.453125 C 39.265625 49.304688 39.058594 49.851562 39.113281 49.707031 L 39.523438 48.6875 L 39.898438 49.722656 C 43.664062 60.183594 58.300781 64.027344 66.691406 65.386719 C 73.972656 66.5625 83.203125 65.066406 91.390625 61.390625 C 97.246094 58.765625 102.289062 53.386719 104.242188 47.699219 L 105.054688 47.90625 C 103.109375 59.398438 98.589844 68.28125 91.621094 74.308594 C 85.558594 79.546875 79.773438 81.820312 72.40625 81.820312 Z M 41.414062 54.25 C 47.105469 66.554688 56.214844 80.664062 71.695312 80.972656 C 79.1875 81.128906 84.980469 78.9375 91.070312 73.667969 C 97.148438 68.410156 101.328125 60.914062 103.519531 51.34375 C 100.960938 55.921875 96.621094 59.960938 91.738281 62.152344 C 83.410156 65.890625 73.996094 67.40625 66.5625 66.207031 C 59.214844 65.019531 47.167969 61.945312 41.414062 54.25 Z M 41.414062 54.25 "/>
<path style=" stroke:none;fill-rule:nonzero;fill:rgb(69.411765%,77.647059%,40%);fill-opacity:1;" d="M 60.558594 52.144531 C 60.21875 52.839844 59.644531 53.410156 58.945312 53.582031 C 58.164062 53.773438 57.34375 53.597656 56.609375 53.28125 C 56.507812 53.234375 56.039062 53.089844 55.996094 52.964844 C 55.996094 52.96875 56.792969 55.195312 57.613281 56.335938 C 57.9375 56.785156 58.300781 57.109375 58.757812 57.394531 C 59.171875 57.648438 60.007812 58.011719 60.007812 58.640625 C 60.007812 59.027344 59.464844 59.179688 59.464844 59.179688 C 56.398438 57.757812 55.488281 53.722656 55.484375 53.707031 C 55.574219 54.109375 55.226562 54.757812 55.007812 55.0625 C 54 56.449219 51.191406 56.910156 50.0625 55.453125 C 49.523438 54.757812 49.777344 53.699219 49.929688 52.898438 C 50.488281 50.011719 50.878906 47.101562 50.792969 44.144531 C 50.800781 44.394531 51.480469 44.882812 51.628906 45.007812 C 52.96875 46.167969 54.367188 46.742188 56.003906 47.15625 C 57.222656 47.464844 58.523438 47.746094 59.605469 48.460938 C 60.574219 49.097656 61.078125 50.101562 60.835938 51.339844 C 60.777344 51.613281 60.683594 51.886719 60.558594 52.144531 Z M 60.558594 52.144531 "/>
<path style=" stroke:none;fill-rule:nonzero;fill:rgb(31.764706%,37.254902%,24.313725%);fill-opacity:1;" d="M 50.789062 44.148438 C 50.796875 44.398438 51.476562 44.886719 51.625 45.011719 C 52.964844 46.171875 54.363281 46.746094 56 47.160156 C 57.21875 47.46875 58.519531 47.746094 59.605469 48.460938 C 60.574219 49.101562 61.078125 50.105469 60.832031 51.34375 C 60.777344 51.617188 60.683594 51.890625 60.558594 52.144531 C 60.21875 52.839844 59.644531 53.410156 58.945312 53.582031 C 58.726562 53.636719 58.496094 53.664062 58.269531 53.664062 C 57.703125 53.664062 57.132812 53.507812 56.609375 53.28125 C 56.507812 53.238281 56.039062 53.09375 55.996094 52.96875 C 55.996094 52.972656 56.792969 55.195312 57.613281 56.339844 C 57.9375 56.789062 58.300781 57.113281 58.757812 57.394531 C 59.171875 57.652344 60.007812 58.015625 60.007812 58.644531 C 60.007812 59.03125 59.464844 59.183594 59.464844 59.183594 C 56.398438 57.765625 55.488281 53.722656 55.484375 53.710938 C 55.574219 54.113281 55.226562 54.761719 55.007812 55.066406 C 54.433594 55.859375 53.261719 56.347656 52.15625 56.347656 C 51.332031 56.347656 50.542969 56.074219 50.0625 55.457031 C 49.523438 54.761719 49.777344 53.703125 49.929688 52.902344 C 50.488281 50.015625 50.878906 47.105469 50.789062 44.148438 M 51.835938 43.613281 C 51.835938 43.617188 51.976562 43.792969 51.988281 44.113281 L 50.789062 44.148438 L 49.59375 44.183594 C 49.667969 46.675781 49.40625 49.292969 48.75 52.675781 L 48.722656 52.816406 C 48.542969 53.726562 48.269531 55.105469 49.113281 56.191406 C 49.789062 57.066406 50.871094 57.550781 52.152344 57.550781 C 53.308594 57.550781 54.449219 57.152344 55.273438 56.492188 C 55.984375 57.859375 57.144531 59.429688 58.960938 60.273438 C 59.121094 60.347656 59.292969 60.382812 59.464844 60.382812 C 59.578125 60.382812 59.6875 60.367188 59.792969 60.339844 C 60.496094 60.136719 61.203125 59.539062 61.203125 58.648438 C 61.203125 57.414062 60.09375 56.78125 59.558594 56.476562 C 59.496094 56.441406 59.4375 56.410156 59.386719 56.375 C 59.050781 56.167969 58.808594 55.945312 58.585938 55.640625 C 58.433594 55.429688 58.273438 55.15625 58.117188 54.859375 C 58.171875 54.863281 58.21875 54.863281 58.269531 54.863281 C 58.597656 54.863281 58.921875 54.824219 59.230469 54.75 C 60.234375 54.503906 61.105469 53.746094 61.632812 52.675781 C 61.804688 52.324219 61.929688 51.953125 62.003906 51.574219 C 62.332031 49.933594 61.679688 48.394531 60.261719 47.464844 C 59.109375 46.703125 57.796875 46.378906 56.632812 46.085938 L 56.296875 46.003906 C 54.589844 45.570312 53.464844 45.019531 52.40625 44.109375 C 52.375 44.078125 52.320312 44.035156 52.25 43.984375 C 52.167969 43.910156 51.90625 43.707031 51.835938 43.613281 Z M 51.835938 43.613281 "/>
<path style="fill:none;stroke-width:3.9929;stroke-linecap:round;stroke-linejoin:round;stroke:rgb(31.764706%,37.254902%,24.313725%);stroke-opacity:1;stroke-miterlimit:10;" d="M 184.375 175.507812 C 184.375 175.507812 176.848958 168.502604 175.703125 162.773438 " transform="matrix(0.3,0,0,0.3,0,0)"/>
<path style=" stroke:none;fill-rule:nonzero;fill:rgb(39.607843%,32.156863%,30.588235%);fill-opacity:1;" d="M 40.21875 53.652344 L 39.046875 49.867188 L 38.789062 49.027344 C 38.820312 49.117188 38.925781 49.414062 39.0625 49.835938 C 39.375 50.761719 39.871094 52.316406 40.21875 53.652344 Z M 40.21875 53.652344 "/>
</g>
</svg>
